<svg width="13" height="24" viewBox="0 0 13 24" fill="none" xmlns="http://www.w3.org/2000/svg">
<g clip-path="url(#clip0_76_56)">
<path d="M12.5 3.77042e-06C12.63 3.78179e-06 12.76 0.050003 12.86 0.150003C13.05 0.350004 13.04 0.670004 12.84 0.860004L1.22001 12L12.85 23.14C13.05 23.33 13.06 23.65 12.87 23.85C12.68 24.05 12.36 24.06 12.16 23.87L0.160005 12.37C0.050005 12.27 4.8521e-06 12.14 4.86434e-06 12C4.87658e-06 11.86 0.0600044 11.73 0.150005 11.64L12.15 0.140003C12.25 0.050003 12.38 3.75993e-06 12.5 3.77042e-06Z" fill="white"/>
</g>
<defs>
<clipPath id="clip0_76_56">
<rect width="13" height="24" fill="white" transform="translate(13 24) rotate(-180)"/>
</clipPath>
</defs>
</svg>
