<svg width="17" height="17" viewBox="0 0 17 17" fill="none" xmlns="http://www.w3.org/2000/svg">
<g clip-path="url(#clip0_6_1051)">
<path d="M8.5 17C3.81083 17 0 13.1892 0 8.5C0 3.81083 3.81083 0 8.5 0C13.1892 0 17 3.81083 17 8.5C17 13.1892 13.1892 17 8.5 17ZM8.5 0.708333C4.20042 0.708333 0.708333 4.20042 0.708333 8.5C0.708333 12.7996 4.20042 16.2917 8.5 16.2917C12.7996 16.2917 16.2917 12.7996 16.2917 8.5C16.2917 4.20042 12.7996 0.708333 8.5 0.708333Z" fill="white"/>
<path d="M7.4375 12.0417C7.3525 12.0417 7.2675 12.0133 7.20375 11.9496C7.055 11.8221 7.04083 11.5954 7.17541 11.4467L12.8421 5.07166C12.9696 4.92291 13.1962 4.91583 13.345 5.04333C13.4937 5.17083 13.5079 5.3975 13.3733 5.54625L7.70666 11.9212C7.63583 11.9992 7.53666 12.0417 7.4375 12.0417Z" fill="white"/>
<path d="M7.4375 12.0417C7.35958 12.0417 7.28167 12.0133 7.21792 11.9637L3.67625 9.13041C3.52042 9.01 3.49917 8.78333 3.61959 8.63458C3.74 8.47875 3.96667 8.4575 4.11542 8.57791L7.65709 11.4112C7.81292 11.5317 7.83417 11.7583 7.71375 11.9071C7.64292 11.9992 7.54375 12.0417 7.4375 12.0417Z" fill="white"/>
</g>
<defs>
<clipPath id="clip0_6_1051">
<rect width="17" height="17" fill="white"/>
</clipPath>
</defs>
</svg>
