<svg width="38" height="24" viewBox="0 0 38 24" fill="none" xmlns="http://www.w3.org/2000/svg">
<g clip-path="url(#clip0_22_101)">
<path d="M7.65839 16.6538C5.51198 16.6538 3.64031 15.6387 3.64031 13.1957C3.64031 11.9742 4.10394 10.9419 4.82513 10.0301C5.66652 9.10107 6.5766 8.49892 7.45233 8.49892C8.51695 8.49892 9.51288 9.25591 10.2341 10.5806C10.9381 11.8538 11.4189 13.6086 11.4189 15.6559C11.4189 17.3763 10.9896 18.9935 10.028 20.5075C8.39675 23.0021 6.83417 24.0172 5.30592 24.0172C3.60597 24.0172 1.87167 23.4667 0.0343475 22.2108L0.309088 21.6258C1.20199 22.0903 2.0949 22.2452 2.9878 22.2452C4.8423 22.2452 6.6968 21.2989 8.39675 19.4237C9.22097 18.529 9.99368 17.428 10.131 16.3441C9.30683 16.5505 8.48261 16.6538 7.65839 16.6538ZM6.83417 10.8215C5.9756 10.8215 4.77362 11.7849 4.77362 12.4559C4.77362 13.5914 6.38771 14.4172 7.89879 14.4172C8.60281 14.4172 9.30683 14.3484 9.97651 14.1763C9.49571 12.3183 8.43109 10.8215 6.83417 10.8215Z" fill="white"/>
<path d="M15.3854 13.5742C15.437 15.157 16.1066 16.4129 18.4076 16.4129C19.85 16.4129 21.052 15.9656 22.3913 15.2086C22.6317 15.0882 22.7519 14.9161 22.7519 14.7613C22.7519 13.7634 22.0994 12.4559 21.0176 11.2516C19.9702 10.1333 18.5793 9.13549 17.2571 8.46452C16.8278 8.27527 16.6905 8.03441 16.6905 7.81075C16.6905 7.34624 17.2056 6.3828 17.6349 5.71183L17.7894 5.69463C19.2833 6.62366 20.9489 7.9828 22.1853 9.51398C23.3014 10.9075 24.0054 12.3355 24.0054 13.8839C24.0054 15.0194 23.7135 16.1204 23.2327 17.1011C21.6014 18.0817 19.85 18.8215 18.1157 18.8215C16.0208 18.8215 14.5784 17.6688 14.5784 14.9333C14.5784 14.6409 14.5784 14.1763 14.6643 13.5914H15.3854V13.5742Z" fill="white"/>
<path d="M30.2558 9.08387L31.5608 11.5785C32.0416 12.5075 32.488 13.4882 32.488 15.0882V17.1183C32.488 18.7527 31.6123 20.5075 30.1699 22.2452C29.0538 23.4323 28.0579 23.914 27.1306 23.914C25.7741 23.914 24.2115 23.4151 22.4085 22.5032L22.6146 21.8839C23.1812 22.0731 23.8509 22.2108 24.6579 22.2108C27.2508 22.1935 29.8952 19.957 31.1143 17.2387C31.2689 16.929 31.3204 16.6366 31.3204 16.4301C31.3204 16.1204 31.1659 15.7591 31.0628 15.4495C30.3931 13.9699 29.6719 12.628 28.8477 11.3892C29.277 10.5978 29.6891 9.84086 30.1527 9.08387H30.2558Z" fill="white"/>
<path d="M36.0081 18.9075C36.197 17.7548 36.2142 16.4301 36.2142 15.2258V13.4194C36.2142 10.0473 35.8536 5.14409 35.5445 1.96129C36.0597 1.29032 36.7809 0.516129 37.3475 0L37.5192 0.0516129C37.9142 4.06021 38 8.72258 38 13.0237C38 14.1419 37.9657 15.2602 37.8798 16.0688C37.8283 17.0839 37.3303 17.8581 36.2657 19.028L36.0081 18.9075Z" fill="white"/>
</g>
<defs>
<clipPath id="clip0_22_101">
<rect width="38" height="24" fill="white"/>
</clipPath>
</defs>
</svg>
