<svg width="15" height="17" viewBox="0 0 15 17" fill="none" xmlns="http://www.w3.org/2000/svg">
<g clip-path="url(#clip0_608_431)">
<path d="M15 3.89122C15 3.7984 14.9656 3.70559 14.8968 3.64133L11.4924 0.107098C11.3549 -0.0356993 11.1417 -0.0356993 11.0041 0.107098L0.797807 10.7098C0.763419 10.7455 0.742786 10.7812 0.729031 10.824C0.722153 10.8383 0.722153 10.8597 0.715276 10.874C0.708398 10.8954 0.701521 10.9168 0.701521 10.9383L0.460805 14.7224C0.453928 14.8223 0.488316 14.9223 0.563969 15.0008C0.625867 15.0651 0.715276 15.1079 0.804684 15.1079C0.811562 15.1079 0.81844 15.1079 0.825317 15.1079L4.47043 14.858C4.49107 14.858 4.5117 14.8438 4.53233 14.8438C4.54609 14.8366 4.56672 14.8366 4.58048 14.8295C4.62174 14.8152 4.65613 14.7866 4.69052 14.7581L12.9574 6.1617L14.9037 4.14112C14.9656 4.07686 15 3.98404 15 3.89122ZM4.44292 13.987L1.52683 10.9597L9.31225 2.8845L12.2283 5.9118L4.44292 13.987ZM1.33426 11.7665L3.66576 14.1869L1.1692 14.3654L1.33426 11.7665ZM12.7167 5.40487L9.80056 2.37757L11.2586 0.863923L14.1747 3.89122L12.7167 5.40487Z" fill="black"/>
<path d="M7.90922 16.286H0.343879C0.151307 16.286 0 16.4431 0 16.643C0 16.8429 0.151307 17 0.343879 17H7.90922C8.10179 17 8.2531 16.8429 8.2531 16.643C8.2531 16.4431 8.10179 16.286 7.90922 16.286Z" fill="black"/>
</g>
<defs>
<clipPath id="clip0_608_431">
<rect width="15" height="17" fill="white"/>
</clipPath>
</defs>
</svg>
