<svg width="137" height="41" viewBox="0 0 137 41" fill="none" xmlns="http://www.w3.org/2000/svg">
<g clip-path="url(#clip0_43_13)">
<path d="M88.4101 0.606842H89.6604C89.9859 0.606842 90.2646 0.63712 90.4964 0.696414C90.7295 0.75697 90.9398 0.86925 91.1298 1.03452C91.6226 1.45462 91.8696 2.09424 91.8696 2.95085C91.8696 3.23345 91.8443 3.49207 91.7961 3.72546C91.7467 3.95885 91.6707 4.16954 91.5668 4.35751C91.463 4.54549 91.3312 4.71328 91.1691 4.86088C91.0424 4.97442 90.9031 5.06526 90.7523 5.13464C90.6016 5.20277 90.4394 5.25197 90.2659 5.27972C90.0924 5.30748 89.8973 5.32136 89.6794 5.32136H88.4304C88.2556 5.32136 88.1251 5.29486 88.0364 5.24314C87.9477 5.19015 87.8907 5.11698 87.8641 5.0211C87.8375 4.92522 87.8236 4.80159 87.8236 4.6502V1.19221C87.8236 0.986577 87.8705 0.837711 87.9629 0.745616C88.0542 0.65352 88.2036 0.606842 88.4101 0.606842ZM88.7813 1.36253V4.56315H89.5084C89.668 4.56315 89.7921 4.55936 89.8833 4.55053C89.9733 4.5417 90.067 4.52026 90.1646 4.48619C90.2608 4.45213 90.3457 4.40419 90.4166 4.34111C90.7371 4.07113 90.898 3.60561 90.898 2.94581C90.898 2.48028 90.8271 2.13209 90.6865 1.89996C90.5458 1.66783 90.371 1.52149 90.1646 1.45715C89.9581 1.39407 89.7085 1.36253 89.4146 1.36253H88.7813Z" fill="white"/>
<path d="M95.1112 3.8327H93.3872C93.3897 4.03203 93.4302 4.20739 93.5088 4.36004C93.5873 4.51269 93.6912 4.62749 93.8216 4.70445C93.9521 4.78141 94.0953 4.82052 94.2523 4.82052C94.3575 4.82052 94.4538 4.8079 94.5412 4.78393C94.6286 4.7587 94.7122 4.72085 94.7945 4.66786C94.8769 4.61488 94.9516 4.55937 95.0213 4.49881C95.0897 4.43952 95.1796 4.35752 95.2898 4.25407C95.3354 4.21496 95.4 4.19603 95.4836 4.19603C95.5736 4.19603 95.647 4.22127 95.7028 4.27047C95.7585 4.31967 95.7864 4.38906 95.7864 4.47989C95.7864 4.55937 95.7547 4.65146 95.6926 4.7587C95.6306 4.86467 95.5356 4.96686 95.4102 5.064C95.2847 5.16114 95.1264 5.24188 94.9351 5.30622C94.7451 5.37056 94.526 5.4021 94.2777 5.4021C93.7114 5.4021 93.2706 5.24188 92.9565 4.92018C92.6423 4.59848 92.4852 4.16197 92.4852 3.61066C92.4852 3.35078 92.5245 3.11108 92.6018 2.88904C92.679 2.667 92.7918 2.4765 92.9413 2.31755C93.0895 2.15859 93.2731 2.03748 93.4898 1.95295C93.7076 1.86842 93.9483 1.82553 94.2131 1.82553C94.5576 1.82553 94.8528 1.89744 95.0998 2.04252C95.3468 2.1876 95.5305 2.37432 95.6534 2.60392C95.7762 2.83353 95.837 3.06692 95.837 3.30536C95.837 3.52614 95.7737 3.6687 95.6458 3.7343C95.5191 3.7999 95.3418 3.8327 95.1112 3.8327ZM93.3859 3.33438H94.9845C94.963 3.03412 94.8819 2.80956 94.7413 2.6607C94.6007 2.51183 94.4145 2.4374 94.1839 2.4374C93.9648 2.4374 93.7836 2.51309 93.643 2.66448C93.5024 2.81461 93.4163 3.03791 93.3859 3.33438Z" fill="white"/>
<path d="M97.3064 2.32383V2.42981C97.4724 2.22669 97.6446 2.07656 97.8232 1.98068C98.0019 1.8848 98.2045 1.83813 98.43 1.83813C98.7011 1.83813 98.9507 1.90751 99.1787 2.04755C99.4067 2.18632 99.5878 2.3907 99.7196 2.65815C99.8526 2.9256 99.9184 3.24352 99.9184 3.61064C99.9184 3.88062 99.8804 4.12915 99.8044 4.35497C99.7284 4.58079 99.6233 4.77129 99.489 4.92394C99.356 5.07786 99.1977 5.19518 99.0165 5.27718C98.8341 5.35919 98.639 5.40082 98.43 5.40082C98.1779 5.40082 97.9664 5.35036 97.7954 5.24943C97.6244 5.1485 97.461 5.0009 97.3064 4.80535V6.1237C97.3064 6.50975 97.1658 6.70277 96.8833 6.70277C96.7174 6.70277 96.6084 6.6523 96.554 6.55264C96.5008 6.45297 96.4729 6.30789 96.4729 6.1174V2.33014C96.4729 2.16235 96.5096 2.03745 96.5831 1.95545C96.6566 1.87345 96.7567 1.83182 96.8833 1.83182C97.0087 1.83182 97.1101 1.87471 97.1886 1.95924C97.2671 2.04376 97.3064 2.16487 97.3064 2.32383ZM99.0343 3.60055C99.0343 3.36842 98.9988 3.17035 98.9279 3.00382C98.8569 2.83729 98.7581 2.70988 98.6327 2.62156C98.5073 2.53325 98.368 2.48784 98.2147 2.48784C97.9715 2.48784 97.7662 2.58372 97.599 2.77422C97.4318 2.96471 97.3495 3.24605 97.3495 3.61695C97.3495 3.96641 97.4318 4.23765 97.5978 4.43193C97.7637 4.62621 97.9689 4.72335 98.2147 4.72335C98.3604 4.72335 98.4972 4.68172 98.6213 4.59593C98.7467 4.51141 98.8468 4.38399 98.9215 4.21494C98.9963 4.04589 99.0343 3.84151 99.0343 3.60055Z" fill="white"/>
<path d="M102.855 4.90628C102.642 5.07155 102.436 5.19518 102.237 5.27719C102.038 5.35919 101.814 5.40082 101.567 5.40082C101.34 5.40082 101.142 5.35667 100.971 5.26709C100.8 5.17752 100.668 5.05767 100.576 4.90502C100.484 4.75237 100.437 4.58837 100.437 4.40922C100.437 4.16952 100.513 3.96388 100.666 3.79483C100.819 3.62578 101.028 3.51224 101.295 3.45421C101.351 3.44159 101.491 3.41258 101.712 3.36716C101.934 3.32174 102.124 3.28137 102.282 3.24352C102.441 3.20568 102.612 3.16026 102.798 3.10727C102.788 2.87514 102.741 2.70609 102.657 2.5976C102.575 2.4891 102.403 2.43485 102.142 2.43485C101.917 2.43485 101.749 2.46639 101.636 2.52821C101.524 2.59003 101.426 2.68338 101.346 2.80828C101.265 2.93318 101.208 3.01518 101.175 3.05429C101.142 3.09466 101.07 3.11358 100.96 3.11358C100.861 3.11358 100.775 3.08204 100.703 3.01896C100.63 2.95588 100.595 2.87514 100.595 2.77674C100.595 2.62283 100.649 2.4727 100.76 2.32636C100.869 2.18001 101.041 2.06016 101.273 1.96555C101.506 1.87093 101.795 1.82425 102.142 1.82425C102.529 1.82425 102.833 1.86967 103.056 1.9605C103.278 2.05133 103.434 2.19641 103.526 2.39322C103.617 2.59003 103.663 2.85243 103.663 3.17792C103.663 3.38356 103.663 3.55892 103.662 3.70274C103.661 3.84656 103.659 4.00552 103.657 4.18214C103.657 4.3474 103.685 4.51898 103.739 4.69812C103.794 4.87727 103.821 4.99207 103.821 5.04379C103.821 5.13337 103.78 5.21537 103.693 5.2898C103.609 5.36423 103.512 5.40082 103.405 5.40082C103.315 5.40082 103.225 5.35793 103.136 5.2734C103.047 5.18888 102.954 5.06776 102.855 4.90628ZM102.797 3.63587C102.667 3.68255 102.48 3.73302 102.233 3.78474C101.986 3.83773 101.816 3.87557 101.721 3.90081C101.626 3.92604 101.536 3.97398 101.45 4.04589C101.364 4.1178 101.321 4.21746 101.321 4.34614C101.321 4.47861 101.372 4.59215 101.473 4.68551C101.574 4.77886 101.706 4.82554 101.871 4.82554C102.045 4.82554 102.206 4.78769 102.353 4.712C102.5 4.6363 102.609 4.5379 102.678 4.41805C102.757 4.28559 102.797 4.06607 102.797 3.76203V3.63587Z" fill="white"/>
<path d="M105.431 4.13546V4.86843C105.431 5.04632 105.39 5.18004 105.306 5.26835C105.222 5.35666 105.116 5.40208 104.987 5.40208C104.86 5.40208 104.755 5.35666 104.674 5.26709C104.592 5.17752 104.551 5.04379 104.551 4.86843V2.4235C104.551 2.02862 104.694 1.83182 104.98 1.83182C105.127 1.83182 105.233 1.8785 105.297 1.97059C105.362 2.06269 105.397 2.19894 105.404 2.37934C105.509 2.19894 105.618 2.06269 105.728 1.97059C105.838 1.8785 105.986 1.83182 106.172 1.83182C106.357 1.83182 106.537 1.8785 106.712 1.97059C106.887 2.06269 106.973 2.18506 106.973 2.33771C106.973 2.44494 106.936 2.53325 106.862 2.60264C106.787 2.67203 106.707 2.70735 106.621 2.70735C106.589 2.70735 106.511 2.68717 106.387 2.64806C106.262 2.60895 106.153 2.58876 106.058 2.58876C105.929 2.58876 105.824 2.62283 105.742 2.68969C105.659 2.75782 105.596 2.85748 105.552 2.98995C105.506 3.12241 105.476 3.28137 105.458 3.4643C105.44 3.64723 105.431 3.87053 105.431 4.13546Z" fill="white"/>
<path d="M107.582 1.90877H107.68V1.38144C107.68 1.24014 107.684 1.12912 107.691 1.04838C107.699 0.967638 107.719 0.899513 107.755 0.841481C107.789 0.780925 107.838 0.732985 107.903 0.695138C107.967 0.65729 108.04 0.638367 108.119 0.638367C108.231 0.638367 108.332 0.679999 108.423 0.763263C108.484 0.818772 108.522 0.886897 108.537 0.967638C108.553 1.04838 108.562 1.16192 108.562 1.31079V1.90877H108.885C109.01 1.90877 109.105 1.93779 109.171 1.99709C109.237 2.05638 109.27 2.13207 109.27 2.22417C109.27 2.3415 109.223 2.42476 109.129 2.47144C109.035 2.51812 108.901 2.54209 108.727 2.54209H108.563V4.15691C108.563 4.29442 108.568 4.39913 108.578 4.47356C108.588 4.54799 108.613 4.60729 108.655 4.65397C108.697 4.70065 108.765 4.72335 108.86 4.72335C108.912 4.72335 108.982 4.71452 109.071 4.6956C109.159 4.67794 109.228 4.66784 109.277 4.66784C109.348 4.66784 109.412 4.69686 109.47 4.75363C109.527 4.8104 109.555 4.88105 109.555 4.96431C109.555 5.10561 109.477 5.21411 109.322 5.28854C109.167 5.36297 108.944 5.40082 108.653 5.40082C108.378 5.40082 108.169 5.35414 108.027 5.26205C107.885 5.16995 107.791 5.04253 107.747 4.87979C107.703 4.71705 107.681 4.49879 107.681 4.22629V2.54335H107.565C107.438 2.54335 107.34 2.51307 107.275 2.45378C107.207 2.39448 107.174 2.31753 107.174 2.22543C107.174 2.13334 107.21 2.05764 107.28 1.99835C107.348 1.93905 107.449 1.90877 107.582 1.90877Z" fill="white"/>
<path d="M112.808 3.68129V4.84825C112.808 5.03244 112.766 5.17121 112.682 5.26331C112.599 5.3554 112.487 5.40208 112.349 5.40208C112.216 5.40208 112.107 5.3554 112.025 5.26331C111.943 5.17121 111.901 5.03244 111.901 4.84825V3.45042C111.901 3.22965 111.893 3.05807 111.878 2.9357C111.863 2.81332 111.822 2.71366 111.755 2.63544C111.688 2.55722 111.583 2.51812 111.438 2.51812C111.15 2.51812 110.96 2.61652 110.868 2.81459C110.777 3.01139 110.732 3.29525 110.732 3.66363V4.85077C110.732 5.0337 110.69 5.17121 110.607 5.26457C110.525 5.35793 110.415 5.4046 110.279 5.4046C110.145 5.4046 110.036 5.35793 109.951 5.26457C109.866 5.17121 109.823 5.0337 109.823 4.85077V2.33645C109.823 2.17118 109.861 2.04629 109.937 1.9605C110.013 1.87471 110.115 1.83182 110.239 1.83182C110.359 1.83182 110.46 1.87219 110.54 1.95293C110.621 2.03367 110.662 2.14469 110.662 2.28599V2.36925C110.815 2.18632 110.979 2.05259 111.153 1.96681C111.328 1.88102 111.522 1.83813 111.735 1.83813C111.956 1.83813 112.146 1.88228 112.306 1.96933C112.466 2.05764 112.596 2.19011 112.7 2.36799C112.848 2.18758 113.008 2.05386 113.178 1.96807C113.347 1.88102 113.536 1.83813 113.743 1.83813C113.983 1.83813 114.191 1.8848 114.366 1.97942C114.541 2.07404 114.67 2.20903 114.756 2.38439C114.831 2.54335 114.869 2.79314 114.869 3.13377V4.84825C114.869 5.03244 114.827 5.17121 114.743 5.26331C114.66 5.3554 114.548 5.40208 114.41 5.40208C114.277 5.40208 114.167 5.3554 114.082 5.26205C113.997 5.16869 113.954 5.03118 113.954 4.84825V3.3722C113.954 3.18423 113.947 3.03284 113.93 2.9193C113.914 2.80576 113.871 2.70988 113.8 2.63292C113.729 2.55596 113.621 2.51685 113.477 2.51685C113.36 2.51685 113.25 2.55092 113.146 2.6203C113.042 2.68843 112.96 2.78052 112.903 2.89659C112.839 3.04419 112.808 3.3066 112.808 3.68129Z" fill="white"/>
<path d="M118.187 3.8327H116.463C116.466 4.03203 116.507 4.20739 116.585 4.36004C116.664 4.51269 116.767 4.62749 116.898 4.70445C117.028 4.78141 117.172 4.82052 117.329 4.82052C117.434 4.82052 117.53 4.8079 117.617 4.78393C117.705 4.75996 117.788 4.72085 117.871 4.66786C117.953 4.61488 118.028 4.55937 118.098 4.49881C118.166 4.43952 118.256 4.35752 118.366 4.25407C118.412 4.21496 118.476 4.19603 118.56 4.19603C118.65 4.19603 118.723 4.22127 118.779 4.27047C118.835 4.31967 118.863 4.38906 118.863 4.47989C118.863 4.55937 118.831 4.65146 118.769 4.7587C118.707 4.86467 118.612 4.96686 118.486 5.064C118.361 5.16114 118.203 5.24188 118.011 5.30622C117.821 5.37056 117.602 5.4021 117.354 5.4021C116.788 5.4021 116.347 5.24188 116.033 4.92018C115.719 4.59848 115.562 4.16197 115.562 3.61066C115.562 3.35078 115.601 3.11108 115.678 2.88904C115.755 2.667 115.868 2.4765 116.018 2.31755C116.166 2.15859 116.349 2.03748 116.566 1.95295C116.784 1.86842 117.025 1.82553 117.289 1.82553C117.634 1.82553 117.929 1.89744 118.176 2.04252C118.423 2.1876 118.607 2.37432 118.73 2.60392C118.853 2.83353 118.913 3.06692 118.913 3.30536C118.913 3.52614 118.85 3.6687 118.722 3.7343C118.594 3.7999 118.418 3.8327 118.187 3.8327ZM116.463 3.33438H118.062C118.041 3.03412 117.959 2.80956 117.819 2.6607C117.678 2.51183 117.492 2.4374 117.261 2.4374C117.042 2.4374 116.861 2.51309 116.721 2.66448C116.579 2.81461 116.494 3.03791 116.463 3.33438Z" fill="white"/>
<path d="M120.458 2.31752V2.4235C120.612 2.22038 120.782 2.07026 120.965 1.97438C121.149 1.8785 121.361 1.83182 121.6 1.83182C121.833 1.83182 122.041 1.88228 122.223 1.98321C122.406 2.08413 122.543 2.22669 122.634 2.41088C122.692 2.51812 122.73 2.63418 122.747 2.75782C122.764 2.88271 122.772 3.04041 122.772 3.23343V4.86717C122.772 5.04253 122.731 5.17626 122.65 5.26583C122.569 5.3554 122.464 5.40082 122.335 5.40082C122.203 5.40082 122.097 5.35414 122.014 5.26205C121.932 5.16995 121.891 5.03749 121.891 4.86591V3.40248C121.891 3.11358 121.851 2.89154 121.77 2.73763C121.689 2.58498 121.528 2.50802 121.287 2.50802C121.13 2.50802 120.987 2.5547 120.858 2.64806C120.729 2.74141 120.634 2.8701 120.574 3.03284C120.531 3.16404 120.509 3.40753 120.509 3.76582V4.86591C120.509 5.04379 120.468 5.17752 120.385 5.26583C120.303 5.35414 120.195 5.39956 120.064 5.39956C119.937 5.39956 119.832 5.35288 119.751 5.26079C119.668 5.16869 119.628 5.03622 119.628 4.86465V2.33014C119.628 2.16235 119.665 2.03745 119.738 1.95545C119.811 1.87345 119.912 1.83182 120.038 1.83182C120.116 1.83182 120.185 1.84948 120.249 1.88607C120.311 1.92265 120.361 1.9769 120.398 2.05007C120.439 2.12324 120.458 2.21281 120.458 2.31752Z" fill="white"/>
<path d="M123.7 1.90877H123.798V1.38144C123.798 1.24014 123.802 1.12912 123.809 1.04838C123.817 0.967638 123.837 0.899513 123.873 0.841481C123.907 0.780925 123.956 0.732985 124.021 0.695138C124.086 0.65729 124.158 0.638367 124.238 0.638367C124.349 0.638367 124.45 0.679999 124.542 0.763263C124.602 0.818772 124.64 0.886897 124.656 0.967638C124.672 1.04838 124.68 1.16192 124.68 1.31079V1.90877H125.003C125.128 1.90877 125.223 1.93779 125.289 1.99709C125.355 2.05638 125.388 2.13207 125.388 2.22417C125.388 2.3415 125.341 2.42476 125.247 2.47144C125.153 2.51812 125.019 2.54209 124.846 2.54209H124.681V4.15691C124.681 4.29442 124.686 4.39913 124.696 4.47356C124.706 4.54799 124.732 4.60729 124.773 4.65397C124.815 4.70065 124.884 4.72335 124.979 4.72335C125.031 4.72335 125.1 4.71452 125.189 4.6956C125.278 4.67794 125.346 4.66784 125.395 4.66784C125.466 4.66784 125.53 4.69686 125.588 4.75363C125.645 4.8104 125.673 4.88105 125.673 4.96431C125.673 5.10561 125.596 5.21411 125.44 5.28854C125.285 5.36297 125.062 5.40082 124.771 5.40082C124.496 5.40082 124.287 5.35414 124.145 5.26205C124.003 5.16995 123.909 5.04253 123.866 4.87979C123.822 4.71705 123.801 4.49879 123.801 4.22629V2.54335H123.684C123.557 2.54335 123.46 2.51307 123.394 2.45378C123.327 2.39448 123.294 2.31753 123.294 2.22543C123.294 2.13334 123.329 2.05764 123.399 1.99835C123.465 1.93905 123.567 1.90877 123.7 1.90877Z" fill="white"/>
<path d="M130.946 3.61696C130.946 3.87811 130.906 4.12033 130.823 4.34111C130.741 4.56188 130.623 4.75112 130.469 4.91008C130.313 5.06904 130.128 5.19015 129.914 5.27467C129.698 5.3592 129.456 5.40209 129.187 5.40209C128.919 5.40209 128.68 5.3592 128.467 5.27341C128.254 5.18762 128.069 5.06525 127.914 4.90503C127.758 4.74481 127.639 4.55683 127.558 4.33858C127.477 4.12159 127.436 3.88063 127.436 3.61696C127.436 3.35077 127.477 3.10728 127.559 2.88651C127.641 2.66573 127.758 2.47649 127.911 2.32006C128.064 2.16362 128.249 2.04251 128.467 1.95799C128.685 1.87346 128.924 1.83057 129.187 1.83057C129.454 1.83057 129.696 1.87346 129.914 1.95925C130.13 2.04503 130.318 2.16741 130.472 2.32637C130.627 2.48533 130.745 2.6733 130.826 2.89281C130.907 3.11233 130.946 3.35329 130.946 3.61696ZM130.062 3.61696C130.062 3.25867 129.983 2.97986 129.825 2.78053C129.667 2.58121 129.454 2.48154 129.188 2.48154C129.016 2.48154 128.864 2.5257 128.733 2.61527C128.601 2.70484 128.5 2.83604 128.429 3.00888C128.358 3.18298 128.323 3.38483 128.323 3.61696C128.323 3.84657 128.358 4.04716 128.428 4.21873C128.498 4.39031 128.598 4.52151 128.728 4.61234C128.859 4.70318 129.012 4.74859 129.188 4.74859C129.455 4.74859 129.668 4.64767 129.825 4.44834C129.982 4.24775 130.062 3.97146 130.062 3.61696Z" fill="white"/>
<path d="M131.571 1.90878H131.781V1.64511C131.781 1.37009 131.816 1.1531 131.886 0.990353C131.956 0.828871 132.075 0.710283 132.241 0.637111C132.407 0.56394 132.636 0.526093 132.927 0.526093C133.442 0.526093 133.699 0.650989 133.699 0.902043C133.699 0.984045 133.672 1.05343 133.618 1.11146C133.563 1.1695 133.5 1.19851 133.426 1.19851C133.392 1.19851 133.333 1.19221 133.249 1.17959C133.166 1.16697 133.095 1.16067 133.036 1.16067C132.877 1.16067 132.774 1.20734 132.73 1.3007C132.684 1.39406 132.661 1.52778 132.661 1.70062V1.91004H132.878C133.214 1.91004 133.382 2.01097 133.382 2.21282C133.382 2.35664 133.338 2.44747 133.248 2.48658C133.158 2.52569 133.035 2.54462 132.878 2.54462H132.661V4.8697C132.661 5.0438 132.62 5.17627 132.537 5.2671C132.455 5.35793 132.347 5.40335 132.215 5.40335C132.091 5.40335 131.986 5.35793 131.904 5.2671C131.821 5.17627 131.78 5.0438 131.78 4.8697V2.54335H131.538C131.406 2.54335 131.305 2.51434 131.234 2.45504C131.163 2.39575 131.127 2.32006 131.127 2.22544C131.127 2.01475 131.276 1.90878 131.571 1.90878Z" fill="white"/>
<path d="M90.936 9.32309H88.775V10.4812H90.7638C90.9107 10.4812 91.0196 10.514 91.0918 10.5796C91.1641 10.6452 91.1995 10.731 91.1995 10.8382C91.1995 10.9455 91.1641 11.0325 91.0931 11.1006C91.0222 11.1688 90.912 11.2016 90.7638 11.2016H88.775V12.5426H91.0095C91.1603 12.5426 91.273 12.578 91.3503 12.6473C91.4263 12.7167 91.4643 12.8101 91.4643 12.9261C91.4643 13.0372 91.4263 13.128 91.3503 13.1974C91.273 13.2668 91.1603 13.3021 91.0095 13.3021H88.4038C88.1948 13.3021 88.0453 13.2554 87.9529 13.1633C87.8616 13.0712 87.816 12.9224 87.816 12.7167V9.1717C87.816 9.03418 87.8363 8.9219 87.8781 8.83612C87.9186 8.74907 87.9833 8.68599 88.0707 8.64688C88.1581 8.60777 88.2695 8.58759 88.4051 8.58759H90.9373C91.0906 8.58759 91.2033 8.62165 91.2781 8.68851C91.3528 8.75664 91.3895 8.84495 91.3895 8.95344C91.3895 9.06446 91.3528 9.15403 91.2781 9.22216C91.2021 9.28902 91.088 9.32309 90.936 9.32309Z" fill="white"/>
<path d="M95.0986 11.662V12.829C95.0986 13.0132 95.0568 13.152 94.9732 13.2441C94.8896 13.3361 94.7781 13.3828 94.64 13.3828C94.507 13.3828 94.3981 13.3361 94.3157 13.2441C94.2334 13.152 94.1916 13.0132 94.1916 12.829V11.4299C94.1916 11.2091 94.184 11.0376 94.1688 10.9152C94.1536 10.7928 94.1131 10.6931 94.0459 10.6149C93.9788 10.5367 93.8736 10.4976 93.7292 10.4976C93.4404 10.4976 93.2504 10.596 93.1592 10.7941C93.068 10.9909 93.0224 11.2747 93.0224 11.6431V12.8303C93.0224 13.0132 92.9806 13.1507 92.8983 13.2441C92.8159 13.3374 92.7057 13.3841 92.5702 13.3841C92.4359 13.3841 92.327 13.3374 92.2421 13.2441C92.1572 13.1507 92.1141 13.0132 92.1141 12.8303V10.3172C92.1141 10.1519 92.1521 10.027 92.2281 9.94124C92.3042 9.85546 92.4055 9.81256 92.5296 9.81256C92.65 9.81256 92.7513 9.85293 92.8311 9.93367C92.9122 10.0144 92.9527 10.1254 92.9527 10.2667V10.35C93.106 10.1671 93.2694 10.0333 93.4442 9.94755C93.619 9.86176 93.8128 9.81887 94.0257 9.81887C94.2473 9.81887 94.4374 9.86302 94.597 9.95007C94.7566 10.0371 94.887 10.1708 94.9909 10.3487C95.1391 10.1683 95.2987 10.0346 95.4685 9.94881C95.6382 9.86302 95.827 9.81887 96.0335 9.81887C96.2741 9.81887 96.4819 9.86555 96.6567 9.96017C96.8315 10.0548 96.9607 10.1898 97.0469 10.3651C97.1216 10.5241 97.1596 10.7739 97.1596 11.1145V12.829C97.1596 13.0132 97.1178 13.152 97.0342 13.2441C96.9506 13.3361 96.8391 13.3828 96.701 13.3828C96.568 13.3828 96.4578 13.3361 96.3729 13.2428C96.2881 13.1494 96.245 13.0119 96.245 12.829V11.3529C96.245 11.165 96.2374 11.0136 96.2209 10.9C96.2045 10.7865 96.1614 10.6906 96.0905 10.6137C96.0195 10.5367 95.9118 10.4976 95.7674 10.4976C95.6509 10.4976 95.5407 10.5317 95.4368 10.601C95.3329 10.6692 95.2506 10.7613 95.1936 10.8773C95.1303 11.0249 95.0986 11.2861 95.0986 11.662Z" fill="white"/>
<path d="M98.8317 10.3046V10.4105C98.9976 10.2074 99.1699 10.0573 99.3485 9.96143C99.5271 9.86555 99.7298 9.81887 99.9553 9.81887C100.226 9.81887 100.476 9.88826 100.704 10.0283C100.932 10.1671 101.113 10.3714 101.245 10.6389C101.378 10.9063 101.444 11.2243 101.444 11.5914C101.444 11.8614 101.406 12.1099 101.33 12.3357C101.254 12.5615 101.149 12.752 101.014 12.9047C100.881 13.0586 100.723 13.1759 100.542 13.2579C100.359 13.3399 100.164 13.3816 99.9553 13.3816C99.7032 13.3816 99.4917 13.3311 99.3207 13.2302C99.1496 13.1292 98.9862 12.9816 98.8317 12.7861V14.1044C98.8317 14.4905 98.6911 14.6835 98.4086 14.6835C98.2426 14.6835 98.1337 14.633 98.0792 14.5334C98.026 14.4337 97.9982 14.2886 97.9982 14.0981V10.3109C97.9982 10.1431 98.0349 10.0182 98.1084 9.9362C98.1818 9.85419 98.2819 9.81256 98.4086 9.81256C98.534 9.81256 98.6353 9.85545 98.7139 9.93998C98.7924 10.0245 98.8317 10.1456 98.8317 10.3046ZM100.558 11.5813C100.558 11.3492 100.523 11.1511 100.452 10.9846C100.381 10.818 100.282 10.6906 100.157 10.6023C100.031 10.514 99.892 10.4686 99.7387 10.4686C99.4955 10.4686 99.2903 10.5645 99.123 10.755C98.9558 10.9455 98.8735 11.2268 98.8735 11.5977C98.8735 11.9471 98.9558 12.2184 99.1218 12.4127C99.2877 12.607 99.4929 12.7041 99.7387 12.7041C99.8844 12.7041 100.021 12.6625 100.145 12.5767C100.271 12.4922 100.371 12.3647 100.446 12.1957C100.522 12.0254 100.558 11.821 100.558 11.5813Z" fill="white"/>
<path d="M105.452 11.5977C105.452 11.8589 105.411 12.1011 105.329 12.3218C105.246 12.5426 105.129 12.7319 104.974 12.8908C104.818 13.0498 104.633 13.1709 104.419 13.2554C104.204 13.3399 103.962 13.3828 103.692 13.3828C103.425 13.3828 103.185 13.3399 102.973 13.2542C102.76 13.1684 102.575 13.046 102.419 12.8858C102.263 12.7256 102.144 12.5376 102.063 12.3193C101.982 12.1023 101.942 11.8614 101.942 11.5977C101.942 11.3315 101.982 11.088 102.064 10.8673C102.147 10.6465 102.263 10.4572 102.417 10.3008C102.57 10.1444 102.755 10.0233 102.973 9.93873C103.189 9.8542 103.43 9.81131 103.692 9.81131C103.959 9.81131 104.201 9.8542 104.419 9.93999C104.636 10.0258 104.822 10.1482 104.978 10.3071C105.132 10.4661 105.25 10.654 105.331 10.8736C105.411 11.0918 105.452 11.3328 105.452 11.5977ZM104.566 11.5977C104.566 11.2394 104.488 10.9606 104.329 10.7613C104.171 10.5619 103.958 10.4623 103.692 10.4623C103.52 10.4623 103.368 10.5064 103.237 10.596C103.106 10.6856 103.004 10.8168 102.933 10.9896C102.862 11.1637 102.827 11.3656 102.827 11.5977C102.827 11.8273 102.862 12.0279 102.932 12.1995C103.002 12.3711 103.102 12.5023 103.232 12.5931C103.363 12.6839 103.516 12.7293 103.692 12.7293C103.959 12.7293 104.172 12.6284 104.329 12.4291C104.488 12.2285 104.566 11.9509 104.566 11.5977Z" fill="white"/>
<path d="M106.694 10.3588L107.269 12.3206L107.793 10.4963C107.848 10.3058 107.89 10.1759 107.917 10.1053C107.943 10.0359 107.994 9.96901 108.069 9.90593C108.143 9.84285 108.245 9.81131 108.374 9.81131C108.506 9.81131 108.608 9.84285 108.682 9.90593C108.757 9.96901 108.809 10.0371 108.839 10.1116C108.869 10.186 108.911 10.3134 108.964 10.4963L109.487 12.3206L110.069 10.3588C110.108 10.2175 110.139 10.1154 110.163 10.0523C110.187 9.98919 110.226 9.93368 110.282 9.88448C110.337 9.83654 110.419 9.81257 110.524 9.81257C110.629 9.81257 110.72 9.84916 110.799 9.92233C110.876 9.9955 110.915 10.0813 110.915 10.1797C110.915 10.2693 110.882 10.4055 110.815 10.5884L110.096 12.6915C110.033 12.8694 109.984 12.9981 109.95 13.0775C109.916 13.157 109.861 13.2277 109.786 13.2895C109.712 13.3513 109.61 13.3828 109.481 13.3828C109.348 13.3828 109.243 13.35 109.166 13.2832C109.09 13.2163 109.033 13.1356 108.996 13.0384C108.959 12.9425 108.92 12.8164 108.877 12.6625L108.374 10.9505L107.886 12.6612C107.822 12.8997 107.752 13.0788 107.676 13.1999C107.601 13.321 107.468 13.3816 107.278 13.3816C107.182 13.3816 107.1 13.3627 107.031 13.3248C106.964 13.287 106.907 13.234 106.862 13.1646C106.816 13.0952 106.777 13.0119 106.742 12.9173C106.708 12.8214 106.68 12.7457 106.661 12.6902L105.948 10.5872C105.877 10.3904 105.842 10.2541 105.842 10.1784C105.842 10.0838 105.88 9.99929 105.955 9.92485C106.031 9.85042 106.123 9.81257 106.232 9.81257C106.379 9.81257 106.478 9.8542 106.53 9.93621C106.582 10.0182 106.636 10.1595 106.694 10.3588Z" fill="white"/>
<path d="M113.896 11.8122H112.172C112.174 12.0115 112.215 12.1869 112.293 12.3395C112.372 12.4922 112.476 12.607 112.606 12.6839C112.737 12.7609 112.88 12.8 113.037 12.8C113.142 12.8 113.238 12.7874 113.326 12.7634C113.413 12.7382 113.497 12.7003 113.579 12.6473C113.661 12.5943 113.736 12.5388 113.806 12.4783C113.874 12.419 113.964 12.337 114.074 12.2335C114.12 12.1944 114.185 12.1755 114.268 12.1755C114.358 12.1755 114.432 12.2007 114.487 12.2499C114.543 12.2991 114.571 12.3685 114.571 12.4594C114.571 12.5388 114.539 12.6309 114.477 12.7382C114.415 12.8441 114.32 12.9463 114.195 13.0435C114.069 13.1406 113.911 13.2213 113.72 13.2857C113.53 13.35 113.311 13.3816 113.062 13.3816C112.496 13.3816 112.055 13.2213 111.741 12.8996C111.427 12.5779 111.27 12.1414 111.27 11.5901C111.27 11.3302 111.309 11.0905 111.386 10.8685C111.464 10.6465 111.576 10.456 111.726 10.297C111.874 10.138 112.058 10.0169 112.274 9.93241C112.492 9.84789 112.733 9.80499 112.998 9.80499C113.342 9.80499 113.637 9.8769 113.884 10.022C114.131 10.1671 114.315 10.3538 114.438 10.5834C114.561 10.813 114.622 11.0464 114.622 11.2848C114.622 11.5056 114.558 11.6482 114.43 11.7138C114.305 11.7794 114.126 11.8122 113.896 11.8122ZM112.172 11.3138H113.77C113.749 11.0136 113.668 10.789 113.527 10.6402C113.387 10.4913 113.2 10.4169 112.97 10.4169C112.751 10.4169 112.569 10.4926 112.429 10.6439C112.287 10.7941 112.202 11.0186 112.172 11.3138Z" fill="white"/>
<path d="M116.24 12.1149V12.8479C116.24 13.0258 116.199 13.1595 116.115 13.2478C116.031 13.3361 115.925 13.3816 115.796 13.3816C115.669 13.3816 115.564 13.3361 115.483 13.2466C115.401 13.157 115.36 13.0233 115.36 12.8479V10.4042C115.36 10.0094 115.503 9.81256 115.79 9.81256C115.936 9.81256 116.042 9.85924 116.106 9.95133C116.171 10.0434 116.206 10.1797 116.213 10.3601C116.318 10.1797 116.427 10.0434 116.537 9.95133C116.647 9.85924 116.795 9.81256 116.982 9.81256C117.166 9.81256 117.346 9.85924 117.521 9.95133C117.696 10.0434 117.782 10.1658 117.782 10.3185C117.782 10.4257 117.745 10.514 117.671 10.5834C117.596 10.6528 117.516 10.6881 117.43 10.6881C117.398 10.6881 117.32 10.6679 117.196 10.6288C117.071 10.5897 116.963 10.5695 116.868 10.5695C116.738 10.5695 116.633 10.6036 116.551 10.6704C116.469 10.7386 116.405 10.8382 116.361 10.9707C116.315 11.1032 116.285 11.2621 116.267 11.445C116.249 11.628 116.24 11.8513 116.24 12.1149Z" fill="white"/>
<path d="M121.195 11.662V12.829C121.195 13.0132 121.153 13.152 121.069 13.2441C120.986 13.3361 120.874 13.3828 120.736 13.3828C120.603 13.3828 120.494 13.3361 120.412 13.2441C120.33 13.152 120.288 13.0132 120.288 12.829V11.4299C120.288 11.2091 120.28 11.0376 120.265 10.9152C120.25 10.7928 120.209 10.6931 120.142 10.6149C120.075 10.5367 119.97 10.4976 119.825 10.4976C119.537 10.4976 119.347 10.596 119.255 10.7941C119.164 10.9909 119.119 11.2747 119.119 11.6431V12.8303C119.119 13.0132 119.077 13.1507 118.994 13.2441C118.912 13.3374 118.802 13.3841 118.666 13.3841C118.532 13.3841 118.423 13.3374 118.338 13.2441C118.253 13.1507 118.21 13.0132 118.21 12.8303V10.3172C118.21 10.1519 118.248 10.027 118.324 9.94124C118.4 9.85546 118.502 9.81256 118.626 9.81256C118.746 9.81256 118.847 9.85293 118.927 9.93367C119.008 10.0144 119.049 10.1254 119.049 10.2667V10.35C119.202 10.1671 119.366 10.0333 119.54 9.94755C119.715 9.86176 119.909 9.81887 120.122 9.81887C120.344 9.81887 120.534 9.86302 120.693 9.95007C120.853 10.0371 120.983 10.1708 121.087 10.3487C121.235 10.1683 121.395 10.0346 121.565 9.94881C121.734 9.86176 121.923 9.81887 122.13 9.81887C122.37 9.81887 122.578 9.86555 122.753 9.96017C122.928 10.0548 123.057 10.1898 123.143 10.3651C123.218 10.5241 123.256 10.7739 123.256 11.1145V12.829C123.256 13.0132 123.214 13.152 123.13 13.2441C123.047 13.3361 122.935 13.3828 122.797 13.3828C122.664 13.3828 122.554 13.3361 122.469 13.2428C122.384 13.1494 122.341 13.0119 122.341 12.829V11.3529C122.341 11.165 122.334 11.0136 122.317 10.9C122.301 10.7865 122.258 10.6906 122.187 10.6137C122.116 10.5367 122.008 10.4976 121.864 10.4976C121.747 10.4976 121.637 10.5317 121.533 10.601C121.429 10.6692 121.347 10.7613 121.29 10.8773C121.226 11.0249 121.195 11.2861 121.195 11.662Z" fill="white"/>
<path d="M126.575 11.8122H124.851C124.853 12.0115 124.894 12.1869 124.972 12.3395C125.051 12.4922 125.155 12.607 125.285 12.6839C125.416 12.7609 125.559 12.8 125.716 12.8C125.821 12.8 125.917 12.7874 126.005 12.7634C126.092 12.7382 126.176 12.7003 126.258 12.6473C126.34 12.5943 126.415 12.5388 126.485 12.4783C126.553 12.419 126.643 12.337 126.753 12.2335C126.799 12.1944 126.864 12.1755 126.947 12.1755C127.037 12.1755 127.111 12.2007 127.166 12.2499C127.222 12.2991 127.25 12.3685 127.25 12.4594C127.25 12.5388 127.218 12.6309 127.156 12.7382C127.094 12.8441 126.999 12.9463 126.874 13.0435C126.748 13.1406 126.59 13.2213 126.399 13.2857C126.209 13.35 125.989 13.3816 125.741 13.3816C125.175 13.3816 124.734 13.2213 124.42 12.8996C124.106 12.5779 123.949 12.1414 123.949 11.5901C123.949 11.3302 123.988 11.0905 124.065 10.8685C124.143 10.6465 124.255 10.456 124.405 10.297C124.553 10.138 124.737 10.0169 124.953 9.93241C125.171 9.84789 125.412 9.80499 125.677 9.80499C126.021 9.80499 126.316 9.8769 126.563 10.022C126.81 10.1671 126.994 10.3538 127.117 10.5834C127.24 10.813 127.301 11.0464 127.301 11.2848C127.301 11.5056 127.237 11.6482 127.109 11.7138C126.981 11.7794 126.805 11.8122 126.575 11.8122ZM124.851 11.3138H126.449C126.428 11.0136 126.347 10.789 126.206 10.6402C126.065 10.4913 125.879 10.4169 125.649 10.4169C125.43 10.4169 125.248 10.4926 125.108 10.6439C124.966 10.7941 124.88 11.0186 124.851 11.3138Z" fill="white"/>
<path d="M128.845 10.2983V10.4042C128.999 10.2011 129.169 10.051 129.353 9.95512C129.536 9.85924 129.748 9.81256 129.987 9.81256C130.22 9.81256 130.428 9.86302 130.611 9.96395C130.793 10.0649 130.93 10.2074 131.021 10.3916C131.079 10.4989 131.117 10.6149 131.134 10.7386C131.151 10.8635 131.159 11.0212 131.159 11.2142V12.8479C131.159 13.0233 131.119 13.157 131.037 13.2466C130.956 13.3361 130.851 13.3816 130.722 13.3816C130.59 13.3816 130.484 13.3349 130.402 13.2428C130.319 13.1507 130.279 13.0182 130.279 12.8467V11.3832C130.279 11.0943 130.238 10.8723 130.157 10.7184C130.076 10.5657 129.915 10.4888 129.674 10.4888C129.517 10.4888 129.374 10.5354 129.245 10.6288C129.116 10.7222 129.021 10.8508 128.961 11.0136C128.918 11.1448 128.897 11.3883 128.897 11.7466V12.8467C128.897 13.0245 128.855 13.1583 128.773 13.2466C128.69 13.3349 128.583 13.3803 128.451 13.3803C128.324 13.3803 128.219 13.3336 128.138 13.2415C128.056 13.1494 128.015 13.017 128.015 12.8454V10.3109C128.015 10.1431 128.052 10.0182 128.125 9.9362C128.199 9.85419 128.299 9.81256 128.425 9.81256C128.503 9.81256 128.572 9.83022 128.636 9.86681C128.698 9.90339 128.748 9.95764 128.785 10.0308C128.826 10.104 128.845 10.1923 128.845 10.2983Z" fill="white"/>
<path d="M132.088 9.88952H132.185V9.36218C132.185 9.22088 132.189 9.10986 132.196 9.02912C132.204 8.94838 132.224 8.88026 132.26 8.82222C132.294 8.76167 132.343 8.71373 132.408 8.67588C132.473 8.63803 132.545 8.61911 132.625 8.61911C132.736 8.61911 132.837 8.66074 132.929 8.74401C132.989 8.79952 133.027 8.86764 133.043 8.94838C133.058 9.02912 133.067 9.14266 133.067 9.29153V9.88952H133.39C133.515 9.88952 133.61 9.91853 133.676 9.97783C133.742 10.0371 133.775 10.1128 133.775 10.2049C133.775 10.3222 133.728 10.4055 133.634 10.4522C133.54 10.4989 133.406 10.5228 133.233 10.5228H133.068V12.1376C133.068 12.2752 133.073 12.3799 133.083 12.4543C133.093 12.5287 133.119 12.588 133.16 12.6347C133.202 12.6814 133.271 12.7041 133.366 12.7041C133.418 12.7041 133.487 12.6953 133.576 12.6763C133.665 12.6587 133.733 12.6486 133.782 12.6486C133.853 12.6486 133.917 12.6776 133.975 12.7344C134.032 12.7911 134.06 12.8618 134.06 12.9451C134.06 13.0864 133.983 13.1949 133.827 13.2693C133.672 13.3437 133.449 13.3816 133.158 13.3816C132.883 13.3816 132.674 13.3349 132.532 13.2428C132.39 13.1507 132.297 13.0233 132.253 12.8605C132.209 12.6978 132.188 12.4795 132.188 12.207V10.5228H132.071C131.944 10.5228 131.847 10.4926 131.781 10.4333C131.714 10.374 131.681 10.297 131.681 10.2049C131.681 10.1128 131.716 10.0371 131.786 9.97783C131.852 9.91853 131.953 9.88952 132.088 9.88952Z" fill="white"/>
<path d="M91.0551 19.5772C91.0551 19.8383 91.0145 20.0805 90.9322 20.3013C90.8499 20.5221 90.7321 20.7113 90.5775 20.8703C90.423 21.0292 90.2368 21.1504 90.0227 21.2349C89.8073 21.3194 89.5654 21.3623 89.2956 21.3623C89.0283 21.3623 88.7889 21.3194 88.5761 21.2336C88.3632 21.1478 88.1783 21.0255 88.0225 20.8652C87.8667 20.705 87.7476 20.517 87.6665 20.2988C87.5855 20.0818 87.5449 19.8408 87.5449 19.5772C87.5449 19.311 87.5855 19.0675 87.6678 18.8467C87.7501 18.6259 87.8667 18.4367 88.02 18.2803C88.1732 18.1238 88.3582 18.0027 88.5761 17.9182C88.7939 17.8337 89.0334 17.7908 89.2956 17.7908C89.5629 17.7908 89.8048 17.8337 90.0227 17.9195C90.2406 18.0052 90.4255 18.1276 90.5813 18.2866C90.7359 18.4455 90.8537 18.6335 90.9347 18.853C91.0145 19.0725 91.0551 19.3135 91.0551 19.5772ZM90.1696 19.5772C90.1696 19.2189 90.0911 18.9401 89.9327 18.7407C89.7744 18.5414 89.5616 18.4417 89.2956 18.4417C89.1233 18.4417 88.9713 18.4859 88.8408 18.5755C88.7091 18.665 88.6077 18.7962 88.5368 18.9691C88.4658 19.1432 88.4304 19.345 88.4304 19.5772C88.4304 19.8068 88.4658 20.0074 88.5355 20.1789C88.6052 20.3505 88.7053 20.4817 88.8357 20.5725C88.9662 20.6634 89.1195 20.7088 89.2956 20.7088C89.5629 20.7088 89.7757 20.6079 89.9327 20.4085C90.0911 20.208 90.1696 19.9304 90.1696 19.5772Z" fill="white"/>
<path d="M91.6783 17.869H91.8886V17.6053C91.8886 17.3303 91.9241 17.1133 91.9938 16.9506C92.0634 16.7891 92.1825 16.6705 92.3485 16.5973C92.5157 16.5229 92.7437 16.4863 93.035 16.4863C93.5493 16.4863 93.8065 16.6112 93.8065 16.8622C93.8065 16.9443 93.7799 17.0136 93.7254 17.0717C93.6709 17.1297 93.6076 17.1587 93.5341 17.1587C93.4999 17.1587 93.4404 17.1524 93.3568 17.1398C93.2732 17.1272 93.2022 17.1209 93.144 17.1209C92.9844 17.1209 92.8818 17.1676 92.8374 17.2609C92.7918 17.3543 92.769 17.488 92.769 17.6608V17.8702H92.9856C93.3213 17.8702 93.4898 17.9712 93.4898 18.173C93.4898 18.3168 93.4455 18.4077 93.3555 18.4468C93.2656 18.4859 93.1427 18.5048 92.9856 18.5048H92.769V20.8299C92.769 21.004 92.7272 21.1365 92.6449 21.2273C92.5625 21.3181 92.4549 21.3636 92.3231 21.3636C92.199 21.3636 92.0938 21.3181 92.0115 21.2273C91.9292 21.1365 91.8874 21.004 91.8874 20.8299V18.5048H91.6454C91.5137 18.5048 91.4123 18.4758 91.3414 18.4165C91.2705 18.3572 91.235 18.2815 91.235 18.1869C91.235 17.975 91.3832 17.869 91.6783 17.869Z" fill="white"/>
<path d="M98.2438 19.4447H97.3647V20.7795C97.3647 20.97 97.3191 21.115 97.2291 21.2134C97.1392 21.3118 97.0239 21.3611 96.8871 21.3611C96.7427 21.3611 96.6262 21.3119 96.5388 21.2147C96.4501 21.1176 96.4058 20.9737 96.4058 20.7858V17.1512C96.4058 16.9405 96.4539 16.7904 96.5514 16.7008C96.649 16.6112 96.8023 16.5658 97.0138 16.5658H98.2438C98.6074 16.5658 98.8873 16.5936 99.0837 16.6491C99.2775 16.7033 99.4447 16.7916 99.5853 16.9165C99.7259 17.0414 99.8336 17.1928 99.9071 17.3732C99.9805 17.5536 100.017 17.7555 100.017 17.9813C100.017 18.4619 99.869 18.8253 99.5714 19.0738C99.2737 19.3211 98.8303 19.4447 98.2438 19.4447ZM98.0107 17.2836H97.3647V18.7244H98.0107C98.2362 18.7244 98.425 18.7004 98.577 18.6537C98.729 18.607 98.8443 18.5288 98.9241 18.4216C99.0039 18.3143 99.0431 18.1743 99.0431 18.0002C99.0431 17.792 98.9811 17.623 98.8595 17.4918C98.7226 17.3543 98.4389 17.2836 98.0107 17.2836Z" fill="white"/>
<path d="M102.965 19.7929H101.241C101.244 19.9922 101.284 20.1676 101.363 20.3202C101.441 20.4729 101.545 20.5877 101.676 20.6647C101.806 20.7416 101.949 20.7807 102.106 20.7807C102.211 20.7807 102.308 20.7681 102.395 20.7441C102.482 20.7202 102.566 20.6811 102.648 20.6281C102.731 20.5751 102.805 20.5196 102.875 20.459C102.944 20.3997 103.033 20.3177 103.144 20.2143C103.189 20.1752 103.254 20.1562 103.338 20.1562C103.427 20.1562 103.501 20.1815 103.557 20.2307C103.612 20.2799 103.64 20.3493 103.64 20.4401C103.64 20.5196 103.609 20.6117 103.547 20.7189C103.484 20.8249 103.389 20.9271 103.264 21.0242C103.139 21.1213 102.98 21.2021 102.789 21.2664C102.599 21.3308 102.38 21.3623 102.132 21.3623C101.565 21.3623 101.124 21.2021 100.81 20.8804C100.496 20.5587 100.339 20.1222 100.339 19.5709C100.339 19.311 100.378 19.0713 100.456 18.8492C100.533 18.6272 100.646 18.4367 100.795 18.2778C100.943 18.1188 101.127 17.9977 101.344 17.9132C101.562 17.8286 101.802 17.7857 102.067 17.7857C102.412 17.7857 102.707 17.8576 102.954 18.0027C103.201 18.1478 103.384 18.3345 103.507 18.5641C103.63 18.7937 103.691 19.0271 103.691 19.2656C103.691 19.4863 103.628 19.6289 103.5 19.6945C103.373 19.7601 103.196 19.7929 102.965 19.7929ZM101.24 19.2946H102.838C102.817 18.9943 102.736 18.7698 102.595 18.6209C102.455 18.472 102.268 18.3976 102.038 18.3976C101.819 18.3976 101.638 18.4733 101.497 18.6247C101.356 18.7748 101.27 18.9981 101.24 19.2946Z" fill="white"/>
<path d="M105.308 20.0944V20.8274C105.308 21.0053 105.267 21.139 105.183 21.2273C105.099 21.3156 104.993 21.3611 104.864 21.3611C104.737 21.3611 104.632 21.3156 104.551 21.2261C104.469 21.1365 104.428 21.0028 104.428 20.8274V18.3837C104.428 17.9889 104.571 17.7921 104.858 17.7921C105.004 17.7921 105.11 17.8387 105.174 17.9308C105.239 18.0229 105.274 18.1592 105.281 18.3396C105.386 18.1592 105.495 18.0229 105.605 17.9308C105.715 17.8387 105.863 17.7921 106.05 17.7921C106.234 17.7921 106.414 17.8387 106.589 17.9308C106.764 18.0229 106.85 18.1453 106.85 18.2979C106.85 18.4052 106.813 18.4935 106.739 18.5629C106.664 18.6323 106.584 18.6676 106.498 18.6676C106.466 18.6676 106.388 18.6474 106.264 18.6083C106.139 18.5692 106.031 18.549 105.936 18.549C105.806 18.549 105.701 18.5831 105.619 18.6499C105.536 18.7181 105.473 18.8177 105.429 18.9502C105.383 19.0826 105.353 19.2416 105.335 19.4245C105.317 19.6075 105.308 19.8308 105.308 20.0944Z" fill="white"/>
<path d="M110.004 20.2143C110.004 20.4565 109.945 20.6634 109.827 20.8362C109.708 21.0091 109.533 21.1403 109.303 21.2286C109.071 21.3169 108.79 21.3623 108.458 21.3623C108.141 21.3623 107.87 21.3144 107.644 21.2172C107.419 21.1213 107.252 21.0002 107.144 20.8551C107.036 20.7101 106.983 20.565 106.983 20.4199C106.983 20.3228 107.017 20.2408 107.087 20.1726C107.155 20.1045 107.243 20.0692 107.349 20.0692C107.442 20.0692 107.513 20.0919 107.562 20.136C107.611 20.1802 107.66 20.2445 107.704 20.3253C107.794 20.4817 107.903 20.599 108.028 20.676C108.154 20.753 108.326 20.7921 108.544 20.7921C108.72 20.7921 108.866 20.753 108.978 20.6747C109.091 20.5965 109.148 20.5069 109.148 20.406C109.148 20.2521 109.09 20.1386 108.972 20.0679C108.854 19.9973 108.662 19.9291 108.392 19.8648C108.088 19.7904 107.841 19.7109 107.651 19.6289C107.459 19.5469 107.307 19.4371 107.193 19.3021C107.079 19.1672 107.022 19.0006 107.022 18.8038C107.022 18.6285 107.076 18.4619 107.181 18.3055C107.286 18.1491 107.442 18.0242 107.647 17.9308C107.852 17.8374 108.1 17.7908 108.392 17.7908C108.62 17.7908 108.825 17.8147 109.007 17.8614C109.189 17.9081 109.341 17.9724 109.462 18.0507C109.584 18.1301 109.676 18.2184 109.74 18.3143C109.803 18.4102 109.835 18.5048 109.835 18.5969C109.835 18.6978 109.8 18.7798 109.733 18.8442C109.665 18.9085 109.569 18.9413 109.444 18.9413C109.355 18.9413 109.277 18.9161 109.214 18.8644C109.151 18.8126 109.078 18.7357 108.996 18.6322C108.929 18.5465 108.85 18.4783 108.76 18.4266C108.67 18.3749 108.548 18.3496 108.392 18.3496C108.232 18.3496 108.1 18.3837 107.994 18.4506C107.889 18.5174 107.836 18.602 107.836 18.7029C107.836 18.795 107.875 18.8707 107.952 18.93C108.029 18.9893 108.135 19.0372 108.265 19.0763C108.397 19.1154 108.577 19.1621 108.807 19.2176C109.081 19.2845 109.304 19.364 109.477 19.4561C109.651 19.5481 109.781 19.6566 109.871 19.7828C109.96 19.9102 110.004 20.0528 110.004 20.2143Z" fill="white"/>
<path d="M114.05 19.5772C114.05 19.8383 114.01 20.0805 113.927 20.3013C113.845 20.5221 113.727 20.7113 113.573 20.8703C113.418 21.0292 113.232 21.1504 113.018 21.2349C112.803 21.3194 112.561 21.3623 112.291 21.3623C112.024 21.3623 111.784 21.3194 111.571 21.2336C111.358 21.1478 111.174 21.0255 111.018 20.8652C110.862 20.705 110.743 20.517 110.662 20.2988C110.581 20.0818 110.54 19.8408 110.54 19.5772C110.54 19.311 110.581 19.0675 110.663 18.8467C110.745 18.6259 110.862 18.4367 111.015 18.2803C111.168 18.1238 111.353 18.0027 111.571 17.9182C111.789 17.8337 112.029 17.7908 112.291 17.7908C112.558 17.7908 112.8 17.8337 113.018 17.9195C113.236 18.0052 113.421 18.1276 113.577 18.2866C113.731 18.4455 113.849 18.6335 113.93 18.853C114.011 19.0725 114.05 19.3135 114.05 19.5772ZM113.166 19.5772C113.166 19.2189 113.088 18.9401 112.929 18.7407C112.771 18.5414 112.558 18.4417 112.292 18.4417C112.12 18.4417 111.968 18.4859 111.837 18.5755C111.706 18.665 111.604 18.7962 111.533 18.9691C111.462 19.1432 111.427 19.345 111.427 19.5772C111.427 19.8068 111.462 20.0074 111.532 20.1789C111.602 20.3505 111.702 20.4817 111.832 20.5725C111.963 20.6634 112.116 20.7088 112.292 20.7088C112.559 20.7088 112.772 20.6079 112.929 20.4085C113.086 20.208 113.166 19.9304 113.166 19.5772Z" fill="white"/>
<path d="M115.546 18.2778V18.3837C115.701 18.1806 115.871 18.0305 116.054 17.9346C116.238 17.8387 116.45 17.792 116.689 17.792C116.922 17.792 117.13 17.8425 117.312 17.9434C117.495 18.0444 117.631 18.1869 117.723 18.3711C117.781 18.4783 117.819 18.5944 117.835 18.718C117.853 18.8429 117.861 19.0006 117.861 19.1937V20.8274C117.861 21.0028 117.82 21.1365 117.739 21.2261C117.658 21.3156 117.553 21.361 117.424 21.361C117.292 21.361 117.186 21.3144 117.103 21.2223C117.021 21.1302 116.98 20.9977 116.98 20.8261V19.3627C116.98 19.0738 116.94 18.8518 116.859 18.6979C116.778 18.5452 116.617 18.4682 116.376 18.4682C116.219 18.4682 116.076 18.5149 115.947 18.6083C115.817 18.7016 115.722 18.8303 115.663 18.9931C115.62 19.1243 115.598 19.3678 115.598 19.726V20.8261C115.598 21.004 115.557 21.1377 115.474 21.2261C115.392 21.3144 115.284 21.3598 115.152 21.3598C115.026 21.3598 114.921 21.3131 114.84 21.221C114.757 21.1289 114.717 20.9965 114.717 20.8249V18.2878C114.717 18.1201 114.753 17.9952 114.827 17.9132C114.9 17.8312 115 17.7895 115.127 17.7895C115.204 17.7895 115.274 17.8072 115.337 17.8438C115.399 17.8804 115.45 17.9346 115.487 18.0078C115.527 18.0835 115.546 18.173 115.546 18.2778Z" fill="white"/>
<path d="M121.579 20.2143C121.579 20.4565 121.519 20.6634 121.401 20.8362C121.282 21.0091 121.107 21.1403 120.877 21.2286C120.645 21.3169 120.364 21.3623 120.032 21.3623C119.715 21.3623 119.444 21.3144 119.219 21.2172C118.993 21.1213 118.826 21.0002 118.718 20.8551C118.611 20.7101 118.557 20.565 118.557 20.4199C118.557 20.3228 118.592 20.2408 118.661 20.1726C118.73 20.1045 118.817 20.0692 118.923 20.0692C119.016 20.0692 119.087 20.0919 119.136 20.136C119.186 20.1802 119.234 20.2445 119.278 20.3253C119.368 20.4817 119.477 20.599 119.602 20.676C119.728 20.753 119.9 20.7921 120.118 20.7921C120.294 20.7921 120.44 20.753 120.553 20.6747C120.665 20.5965 120.722 20.5069 120.722 20.406C120.722 20.2521 120.664 20.1386 120.546 20.0679C120.428 19.9973 120.236 19.9291 119.966 19.8648C119.662 19.7904 119.415 19.7109 119.225 19.6289C119.034 19.5469 118.882 19.4371 118.768 19.3021C118.654 19.1672 118.597 19.0006 118.597 18.8038C118.597 18.6285 118.65 18.4619 118.755 18.3055C118.86 18.1491 119.016 18.0242 119.221 17.9308C119.426 17.8374 119.675 17.7908 119.966 17.7908C120.194 17.7908 120.399 17.8147 120.582 17.8614C120.763 17.9081 120.915 17.9724 121.036 18.0507C121.158 18.1301 121.25 18.2184 121.314 18.3143C121.377 18.4102 121.409 18.5048 121.409 18.5969C121.409 18.6978 121.375 18.7798 121.307 18.8442C121.239 18.9085 121.143 18.9413 121.019 18.9413C120.929 18.9413 120.851 18.9161 120.788 18.8644C120.725 18.8126 120.653 18.7357 120.57 18.6322C120.503 18.5465 120.425 18.4783 120.335 18.4266C120.245 18.3749 120.122 18.3496 119.966 18.3496C119.806 18.3496 119.675 18.3837 119.568 18.4506C119.463 18.5174 119.41 18.602 119.41 18.7029C119.41 18.795 119.449 18.8707 119.526 18.93C119.604 18.9893 119.709 19.0372 119.839 19.0763C119.971 19.1154 120.151 19.1621 120.381 19.2176C120.655 19.2845 120.878 19.364 121.052 19.4561C121.225 19.5481 121.356 19.6566 121.446 19.7828C121.534 19.9102 121.579 20.0528 121.579 20.2143Z" fill="white"/>
<path d="M124.526 18.3396L125.102 20.3013L125.625 18.4771C125.68 18.2866 125.722 18.1566 125.749 18.086C125.775 18.0166 125.826 17.9498 125.901 17.8867C125.976 17.8236 126.077 17.7921 126.206 17.7921C126.338 17.7921 126.44 17.8236 126.514 17.8867C126.589 17.9498 126.641 18.0179 126.671 18.0923C126.701 18.1667 126.743 18.2942 126.796 18.4771L127.32 20.3013L127.901 18.3396C127.94 18.1983 127.971 18.0961 127.995 18.033C128.019 17.9699 128.058 17.9144 128.114 17.8652C128.17 17.8173 128.251 17.7933 128.356 17.7933C128.461 17.7933 128.552 17.8299 128.631 17.9031C128.708 17.9762 128.747 18.062 128.747 18.1604C128.747 18.25 128.714 18.3863 128.647 18.5692L127.928 20.6722C127.866 20.8501 127.816 20.9788 127.782 21.0583C127.748 21.1378 127.693 21.2084 127.619 21.2702C127.544 21.332 127.442 21.3636 127.313 21.3636C127.18 21.3636 127.075 21.3308 126.998 21.2639C126.921 21.1971 126.865 21.1163 126.828 21.0192C126.791 20.9233 126.752 20.7971 126.709 20.6432L126.205 18.9325L125.717 20.6432C125.653 20.8817 125.583 21.0608 125.507 21.1819C125.432 21.303 125.299 21.3636 125.109 21.3636C125.013 21.3636 124.93 21.3447 124.862 21.3068C124.795 21.269 124.738 21.216 124.692 21.1466C124.647 21.0772 124.607 20.9939 124.573 20.8993C124.539 20.8034 124.511 20.7277 124.492 20.6722L123.779 18.5692C123.708 18.3724 123.673 18.2361 123.673 18.1604C123.673 18.0658 123.711 17.9813 123.785 17.9069C123.861 17.8324 123.954 17.7946 124.063 17.7946C124.21 17.7946 124.309 17.8362 124.36 17.9182C124.414 17.999 124.469 18.139 124.526 18.3396Z" fill="white"/>
<path d="M129.801 17.3833C129.678 17.3833 129.573 17.3454 129.486 17.271C129.398 17.1966 129.355 17.0893 129.355 16.9531C129.355 16.8295 129.4 16.726 129.49 16.6465C129.578 16.5658 129.682 16.5254 129.801 16.5254C129.915 16.5254 130.016 16.562 130.105 16.6352C130.194 16.7083 130.238 16.8143 130.238 16.9531C130.238 17.0881 130.195 17.1941 130.109 17.2698C130.022 17.3454 129.919 17.3833 129.801 17.3833ZM130.237 18.2904V20.8274C130.237 21.0028 130.195 21.1365 130.111 21.2261C130.028 21.3156 129.921 21.361 129.792 21.361C129.663 21.361 129.558 21.3144 129.477 21.2223C129.396 21.1302 129.355 20.9977 129.355 20.8261V18.3143C129.355 18.1402 129.396 18.0103 129.477 17.922C129.558 17.8337 129.663 17.7895 129.792 17.7895C129.921 17.7895 130.028 17.8337 130.111 17.922C130.194 18.0116 130.237 18.1339 130.237 18.2904Z" fill="white"/>
<path d="M131.196 17.869H131.293V17.3417C131.293 17.2004 131.297 17.0894 131.305 17.0086C131.312 16.9279 131.333 16.8597 131.368 16.8017C131.402 16.7412 131.452 16.6932 131.516 16.6554C131.581 16.6175 131.653 16.5986 131.733 16.5986C131.844 16.5986 131.946 16.6402 132.037 16.7235C132.098 16.779 132.136 16.8471 132.151 16.9279C132.167 17.0086 132.175 17.1222 132.175 17.271V17.869H132.498C132.623 17.869 132.718 17.898 132.784 17.9573C132.85 18.0166 132.883 18.0923 132.883 18.1844C132.883 18.3017 132.836 18.385 132.742 18.4317C132.649 18.4784 132.514 18.5023 132.341 18.5023H132.176V20.1171C132.176 20.2547 132.181 20.3594 132.191 20.4338C132.202 20.5082 132.227 20.5675 132.269 20.6142C132.311 20.6609 132.379 20.6836 132.474 20.6836C132.526 20.6836 132.596 20.6748 132.684 20.6558C132.773 20.6382 132.841 20.6281 132.891 20.6281C132.962 20.6281 133.025 20.6571 133.083 20.7139C133.14 20.7706 133.168 20.8413 133.168 20.9246C133.168 21.0658 133.091 21.1743 132.935 21.2488C132.781 21.3232 132.558 21.3611 132.266 21.3611C131.991 21.3611 131.782 21.3144 131.64 21.2223C131.499 21.1302 131.405 21.0028 131.362 20.84C131.317 20.6773 131.296 20.459 131.296 20.1865V18.5011H131.179C131.053 18.5011 130.955 18.4708 130.889 18.4115C130.822 18.3522 130.789 18.2752 130.789 18.1831C130.789 18.091 130.825 18.0154 130.894 17.9561C130.96 17.8993 131.063 17.869 131.196 17.869Z" fill="white"/>
<path d="M134.35 17.02V18.3219C134.461 18.1932 134.572 18.091 134.678 18.0166C134.784 17.9422 134.902 17.8854 135.032 17.8476C135.161 17.8097 135.3 17.7908 135.448 17.7908C135.672 17.7908 135.871 17.8375 136.044 17.9321C136.217 18.0267 136.353 18.1642 136.453 18.3434C136.515 18.4481 136.557 18.5654 136.578 18.6953C136.6 18.8253 136.61 18.9741 136.61 19.1445V20.8261C136.61 21.0015 136.569 21.1352 136.488 21.2248C136.407 21.3144 136.301 21.3598 136.168 21.3598C135.878 21.3598 135.732 21.1819 135.732 20.8261V19.3438C135.732 19.0625 135.69 18.8467 135.607 18.6953C135.523 18.544 135.363 18.4683 135.129 18.4683C134.972 18.4683 134.83 18.5124 134.705 18.602C134.579 18.6916 134.484 18.8127 134.422 18.9666C134.375 19.0978 134.351 19.3299 134.351 19.6642V20.8249C134.351 20.999 134.312 21.1314 134.233 21.2223C134.155 21.3131 134.046 21.3585 133.905 21.3585C133.615 21.3585 133.47 21.1806 133.47 20.8249V17.0174C133.47 16.8396 133.508 16.7058 133.584 16.6175C133.66 16.5292 133.767 16.4838 133.905 16.4838C134.045 16.4838 134.155 16.5292 134.233 16.6188C134.311 16.7121 134.35 16.8446 134.35 17.02Z" fill="white"/>
<path d="M88.4101 24.5465H89.6604C89.9859 24.5465 90.2646 24.5768 90.4964 24.6361C90.7295 24.6967 90.9398 24.8089 91.1298 24.9742C91.6226 25.3943 91.8696 26.0339 91.8696 26.8905C91.8696 27.1731 91.8443 27.4318 91.7961 27.6652C91.7467 27.8985 91.6707 28.1092 91.5668 28.2972C91.463 28.4852 91.3312 28.653 91.1691 28.8006C91.0424 28.9141 90.9031 29.005 90.7523 29.0743C90.6016 29.1425 90.4394 29.1917 90.2659 29.2194C90.0924 29.2472 89.8973 29.2611 89.6794 29.2611H88.4304C88.2556 29.2611 88.1251 29.2346 88.0364 29.1828C87.9477 29.1298 87.8907 29.0567 87.8641 28.9608C87.8375 28.8649 87.8236 28.7413 87.8236 28.5899V25.1319C87.8236 24.9263 87.8705 24.7774 87.9629 24.6853C88.0542 24.5932 88.2036 24.5465 88.4101 24.5465ZM88.7813 25.3022V28.5028H89.5084C89.668 28.5028 89.7921 28.4991 89.8833 28.4902C89.9733 28.4814 90.067 28.46 90.1646 28.4259C90.2608 28.3918 90.3457 28.3439 90.4166 28.2808C90.7371 28.0108 90.898 27.5453 90.898 26.8855C90.898 26.42 90.8271 26.0718 90.6865 25.8397C90.5458 25.6075 90.371 25.4612 90.1646 25.3968C89.9581 25.3338 89.7085 25.3022 89.4146 25.3022H88.7813Z" fill="white"/>
<path d="M93.0958 25.364C92.9729 25.364 92.8678 25.3262 92.7804 25.2518C92.693 25.1773 92.6499 25.0701 92.6499 24.9338C92.6499 24.8102 92.6942 24.7068 92.7842 24.6273C92.8729 24.5465 92.9767 24.5062 93.0958 24.5062C93.2098 24.5062 93.3112 24.5427 93.3998 24.6159C93.4885 24.6891 93.5328 24.7951 93.5328 24.9338C93.5328 25.0688 93.4898 25.1748 93.4036 25.2505C93.3162 25.3262 93.2136 25.364 93.0958 25.364ZM93.5316 26.2711V28.8081C93.5316 28.9835 93.4898 29.1172 93.4062 29.2068C93.3225 29.2964 93.2161 29.3418 93.0869 29.3418C92.9577 29.3418 92.8526 29.2951 92.7715 29.203C92.6904 29.1109 92.6499 28.9785 92.6499 28.8069V26.2951C92.6499 26.121 92.6904 25.991 92.7715 25.9027C92.8526 25.8144 92.9577 25.7703 93.0869 25.7703C93.2161 25.7703 93.3225 25.8144 93.4062 25.9027C93.4898 25.9923 93.5316 26.1147 93.5316 26.2711Z" fill="white"/>
<path d="M97.2811 28.1938C97.2811 28.436 97.2215 28.6429 97.1037 28.8157C96.9847 28.9885 96.8098 29.1198 96.5793 29.2081C96.3475 29.2964 96.0663 29.3418 95.7344 29.3418C95.4177 29.3418 95.1466 29.2938 94.9211 29.1967C94.6957 29.1008 94.5284 28.9797 94.4208 28.8346C94.3131 28.6896 94.2599 28.5445 94.2599 28.3994C94.2599 28.3022 94.2941 28.2202 94.3638 28.1521C94.4322 28.084 94.5196 28.0487 94.626 28.0487C94.7185 28.0487 94.7894 28.0714 94.8388 28.1155C94.8882 28.161 94.9363 28.224 94.9807 28.3048C95.0706 28.4612 95.1795 28.5785 95.305 28.6555C95.4304 28.7324 95.6026 28.7716 95.8205 28.7716C95.9966 28.7716 96.1423 28.7324 96.255 28.6542C96.3678 28.576 96.4248 28.4864 96.4248 28.3855C96.4248 28.2316 96.3665 28.1181 96.2487 28.0474C96.1309 27.9768 95.9383 27.9086 95.6685 27.8443C95.3645 27.7699 95.1175 27.6904 94.9275 27.6084C94.7362 27.5264 94.5842 27.4166 94.4702 27.2816C94.3562 27.1466 94.2992 26.9801 94.2992 26.7833C94.2992 26.608 94.3524 26.4414 94.4575 26.285C94.5626 26.1286 94.7184 26.0037 94.9237 25.9103C95.1289 25.8169 95.3772 25.7703 95.6685 25.7703C95.8965 25.7703 96.1017 25.7942 96.2841 25.8409C96.4653 25.8876 96.6173 25.9519 96.7389 26.0301C96.8605 26.1096 96.953 26.1979 97.0163 26.2938C97.0797 26.3897 97.1113 26.4843 97.1113 26.5764C97.1113 26.6773 97.0771 26.7593 97.01 26.8237C96.9416 26.888 96.8453 26.9208 96.7212 26.9208C96.6312 26.9208 96.554 26.8956 96.4906 26.8439C96.4273 26.7921 96.3551 26.7152 96.2728 26.6117C96.2056 26.5259 96.1271 26.4578 96.0371 26.4061C95.9472 26.3544 95.8243 26.3291 95.6685 26.3291C95.5089 26.3291 95.3772 26.3632 95.2707 26.4301C95.1656 26.4969 95.1124 26.5815 95.1124 26.6824C95.1124 26.7745 95.1517 26.8502 95.229 26.9095C95.3062 26.9688 95.4114 27.0167 95.5418 27.0558C95.6736 27.0949 95.8535 27.1416 96.084 27.1971C96.3576 27.264 96.5806 27.3435 96.7541 27.4355C96.9277 27.5276 97.0581 27.6361 97.1481 27.7623C97.2367 27.8897 97.2811 28.0335 97.2811 28.1938Z" fill="white"/>
<path d="M100.256 28.8472C100.043 29.0125 99.8362 29.1361 99.6373 29.2181C99.4385 29.3001 99.2142 29.3418 98.9672 29.3418C98.7405 29.3418 98.5429 29.2976 98.3719 29.208C98.2008 29.1185 98.0691 28.9986 97.9766 28.846C97.8842 28.6933 97.8373 28.5293 97.8373 28.3502C97.8373 28.1105 97.9133 27.9048 98.0666 27.7358C98.2198 27.5667 98.4289 27.4532 98.6961 27.3952C98.7519 27.3825 98.8912 27.3535 99.1129 27.3081C99.3346 27.2627 99.5246 27.2223 99.6829 27.1845C99.8413 27.1466 100.012 27.1012 100.198 27.0482C100.188 26.8161 100.141 26.647 100.058 26.5385C99.9756 26.43 99.8033 26.3758 99.5423 26.3758C99.3181 26.3758 99.1496 26.4073 99.0369 26.4692C98.9242 26.531 98.8266 26.6243 98.7468 26.7492C98.6657 26.8741 98.6087 26.9561 98.5758 26.9952C98.5429 27.0356 98.4707 27.0545 98.3604 27.0545C98.2616 27.0545 98.1755 27.023 98.1033 26.9599C98.0311 26.8968 97.9956 26.8161 97.9956 26.7177C97.9956 26.5638 98.0501 26.4136 98.1603 26.2673C98.2692 26.121 98.4415 26.0011 98.6733 25.9065C98.9064 25.8119 99.1952 25.7652 99.5423 25.7652C99.9299 25.7652 100.234 25.8106 100.457 25.9014C100.679 25.9923 100.834 26.1374 100.927 26.3342C101.018 26.531 101.064 26.7934 101.064 27.1189C101.064 27.3245 101.064 27.4999 101.062 27.6437C101.061 27.7875 101.06 27.9465 101.057 28.1231C101.057 28.2884 101.085 28.4599 101.14 28.6391C101.194 28.8182 101.222 28.933 101.222 28.9847C101.222 29.0743 101.18 29.1563 101.094 29.2308C101.009 29.3052 100.913 29.3418 100.805 29.3418C100.715 29.3418 100.625 29.2989 100.537 29.2144C100.448 29.1298 100.354 29.0075 100.256 28.8472ZM100.197 27.5768C100.068 27.6235 99.8805 27.674 99.6335 27.7257C99.3865 27.7787 99.2168 27.8165 99.1218 27.8418C99.0268 27.867 98.9368 27.9149 98.8507 27.9868C98.7645 28.0587 98.7215 28.1584 98.7215 28.2871C98.7215 28.4196 98.7721 28.5331 98.8735 28.6265C98.9748 28.7198 99.1066 28.7665 99.2712 28.7665C99.4461 28.7665 99.6069 28.7286 99.7539 28.6529C99.9008 28.5773 100.01 28.4789 100.078 28.359C100.158 28.2265 100.197 28.007 100.197 27.703V27.5768Z" fill="white"/>
<path d="M102.684 24.9679V26.3089C102.85 26.1374 103.018 26.0062 103.19 25.9153C103.363 25.8245 103.576 25.7791 103.83 25.7791C104.123 25.7791 104.38 25.8485 104.6 25.986C104.821 26.1247 104.992 26.3253 105.113 26.5877C105.235 26.8502 105.296 27.1618 105.296 27.5226C105.296 27.7888 105.262 28.0322 105.194 28.2543C105.126 28.4763 105.029 28.6681 104.899 28.8321C104.77 28.9948 104.614 29.121 104.429 29.2106C104.246 29.2989 104.042 29.3443 103.82 29.3443C103.685 29.3443 103.557 29.3279 103.437 29.2963C103.318 29.2648 103.216 29.2219 103.132 29.1689C103.049 29.1159 102.976 29.0617 102.917 29.0062C102.857 28.9507 102.78 28.8674 102.683 28.7551V28.8422C102.683 29.0074 102.642 29.1323 102.563 29.2169C102.484 29.3014 102.382 29.3443 102.259 29.3443C102.135 29.3443 102.035 29.3014 101.96 29.2169C101.886 29.1323 101.849 29.0074 101.849 28.8422V25.0082C101.849 24.8304 101.886 24.6954 101.957 24.6045C102.029 24.5137 102.129 24.4683 102.258 24.4683C102.394 24.4683 102.499 24.5112 102.571 24.5982C102.647 24.684 102.684 24.8077 102.684 24.9679ZM102.726 27.5768C102.726 27.9263 102.805 28.195 102.966 28.383C103.127 28.5709 103.337 28.6643 103.597 28.6643C103.819 28.6643 104.01 28.5684 104.171 28.3767C104.332 28.1849 104.412 27.9099 104.412 27.5516C104.412 27.3195 104.379 27.1201 104.312 26.9536C104.244 26.7858 104.151 26.6571 104.028 26.5663C103.905 26.4755 103.762 26.43 103.598 26.43C103.431 26.43 103.28 26.4755 103.15 26.5663C103.018 26.6571 102.916 26.7896 102.84 26.9624C102.764 27.1327 102.726 27.3384 102.726 27.5768Z" fill="white"/>
<path d="M105.917 28.8081V25.0007C105.917 24.8253 105.956 24.6916 106.034 24.602C106.113 24.5125 106.219 24.467 106.352 24.467C106.485 24.467 106.593 24.5112 106.675 24.6008C106.758 24.6903 106.798 24.8228 106.798 25.0007V28.8081C106.798 28.986 106.756 29.1197 106.674 29.208C106.592 29.2964 106.484 29.3418 106.354 29.3418C106.224 29.3418 106.119 29.2951 106.038 29.203C105.957 29.1122 105.917 28.9797 105.917 28.8081Z" fill="white"/>
<path d="M108.154 25.364C108.031 25.364 107.926 25.3262 107.838 25.2518C107.751 25.1773 107.708 25.0701 107.708 24.9338C107.708 24.8102 107.752 24.7068 107.842 24.6273C107.931 24.5465 108.035 24.5062 108.154 24.5062C108.268 24.5062 108.369 24.5427 108.458 24.6159C108.546 24.6891 108.591 24.7951 108.591 24.9338C108.591 25.0688 108.548 25.1748 108.461 25.2505C108.375 25.3262 108.273 25.364 108.154 25.364ZM108.591 26.2711V28.8081C108.591 28.9835 108.549 29.1172 108.465 29.2068C108.382 29.2964 108.275 29.3418 108.146 29.3418C108.017 29.3418 107.912 29.2951 107.831 29.203C107.75 29.1109 107.709 28.9785 107.709 28.8069V26.2951C107.709 26.121 107.75 25.991 107.831 25.9027C107.912 25.8144 108.017 25.7703 108.146 25.7703C108.275 25.7703 108.382 25.8144 108.465 25.9027C108.548 25.9923 108.591 26.1147 108.591 26.2711Z" fill="white"/>
<path d="M109.501 28.8081V25.0007C109.501 24.8253 109.541 24.6916 109.619 24.602C109.698 24.5125 109.804 24.467 109.937 24.467C110.07 24.467 110.178 24.5112 110.26 24.6008C110.343 24.6903 110.383 24.8228 110.383 25.0007V28.8081C110.383 28.986 110.341 29.1197 110.259 29.208C110.177 29.2964 110.069 29.3418 109.938 29.3418C109.809 29.3418 109.704 29.2951 109.623 29.203C109.541 29.1122 109.501 28.9797 109.501 28.8081Z" fill="white"/>
<path d="M111.738 25.364C111.616 25.364 111.51 25.3262 111.423 25.2518C111.336 25.1773 111.293 25.0701 111.293 24.9338C111.293 24.8102 111.337 24.7068 111.427 24.6273C111.516 24.5465 111.619 24.5062 111.738 24.5062C111.852 24.5062 111.954 24.5427 112.043 24.6159C112.131 24.6891 112.176 24.7951 112.176 24.9338C112.176 25.0688 112.132 25.1748 112.046 25.2505C111.959 25.3262 111.858 25.364 111.738 25.364ZM112.174 26.2711V28.8081C112.174 28.9835 112.132 29.1172 112.049 29.2068C111.965 29.2964 111.859 29.3418 111.73 29.3418C111.6 29.3418 111.495 29.2951 111.414 29.203C111.333 29.1109 111.293 28.9785 111.293 28.8069V26.2951C111.293 26.121 111.333 25.991 111.414 25.9027C111.495 25.8144 111.6 25.7703 111.73 25.7703C111.859 25.7703 111.965 25.8144 112.049 25.9027C112.132 25.9923 112.174 26.1147 112.174 26.2711Z" fill="white"/>
<path d="M113.133 25.8497H113.231V25.3224C113.231 25.1811 113.235 25.0701 113.242 24.9893C113.25 24.9086 113.27 24.8405 113.306 24.7824C113.34 24.7219 113.389 24.6739 113.454 24.6361C113.518 24.5982 113.591 24.5793 113.67 24.5793C113.782 24.5793 113.883 24.6209 113.974 24.7042C114.035 24.7597 114.073 24.8278 114.088 24.9086C114.104 24.9893 114.112 25.1029 114.112 25.2517V25.8497H114.435C114.561 25.8497 114.656 25.8787 114.722 25.938C114.788 25.9973 114.821 26.073 114.821 26.1651C114.821 26.2824 114.774 26.3657 114.68 26.4124C114.586 26.4591 114.452 26.483 114.278 26.483H114.114V28.0979C114.114 28.2354 114.119 28.3401 114.129 28.4145C114.139 28.4889 114.164 28.5482 114.206 28.5949C114.248 28.6416 114.316 28.6643 114.411 28.6643C114.463 28.6643 114.533 28.6555 114.622 28.6365C114.71 28.6189 114.779 28.6088 114.828 28.6088C114.899 28.6088 114.962 28.6378 115.021 28.6946C115.078 28.7514 115.106 28.822 115.106 28.9053C115.106 29.0466 115.028 29.1551 114.872 29.2295C114.718 29.3039 114.495 29.3418 114.204 29.3418C113.929 29.3418 113.72 29.2951 113.578 29.203C113.436 29.1109 113.342 28.9835 113.298 28.8207C113.254 28.658 113.232 28.4397 113.232 28.1672V26.4818H113.116C112.989 26.4818 112.891 26.4515 112.825 26.3922C112.758 26.3329 112.725 26.256 112.725 26.1639C112.725 26.0718 112.761 25.9961 112.83 25.9368C112.899 25.8787 113 25.8497 113.133 25.8497Z" fill="white"/>
<path d="M115.872 25.364C115.749 25.364 115.644 25.3262 115.556 25.2518C115.469 25.1773 115.426 25.0701 115.426 24.9338C115.426 24.8102 115.47 24.7068 115.56 24.6273C115.649 24.5465 115.753 24.5062 115.872 24.5062C115.986 24.5062 116.087 24.5427 116.176 24.6159C116.265 24.6891 116.309 24.7951 116.309 24.9338C116.309 25.0688 116.266 25.1748 116.18 25.2505C116.094 25.3262 115.991 25.364 115.872 25.364ZM116.309 26.2711V28.8081C116.309 28.9835 116.267 29.1172 116.184 29.2068C116.1 29.2964 115.994 29.3418 115.864 29.3418C115.735 29.3418 115.63 29.2951 115.549 29.203C115.468 29.1109 115.427 28.9785 115.427 28.8069V26.2951C115.427 26.121 115.468 25.991 115.549 25.9027C115.63 25.8144 115.735 25.7703 115.864 25.7703C115.994 25.7703 116.1 25.8144 116.184 25.9027C116.266 25.9923 116.309 26.1147 116.309 26.2711Z" fill="white"/>
<path d="M119.68 27.7724H117.956C117.958 27.9717 117.999 28.1471 118.077 28.2997C118.156 28.4524 118.26 28.5672 118.39 28.6441C118.521 28.7211 118.664 28.7602 118.821 28.7602C118.926 28.7602 119.022 28.7476 119.11 28.7236C119.197 28.6984 119.281 28.6605 119.363 28.6075C119.445 28.5545 119.52 28.499 119.59 28.4385C119.658 28.3792 119.748 28.2972 119.858 28.1937C119.904 28.1546 119.969 28.1357 120.052 28.1357C120.142 28.1357 120.216 28.1609 120.271 28.2101C120.327 28.2593 120.355 28.3287 120.355 28.4196C120.355 28.499 120.323 28.5911 120.261 28.6984C120.199 28.8043 120.104 28.9065 119.979 29.0037C119.853 29.1008 119.695 29.1816 119.504 29.2459C119.314 29.3102 119.095 29.3418 118.846 29.3418C118.28 29.3418 117.839 29.1815 117.525 28.8598C117.211 28.5381 117.054 28.1016 117.054 27.5503C117.054 27.2904 117.093 27.0507 117.17 26.8287C117.248 26.6067 117.36 26.4162 117.51 26.2572C117.658 26.0983 117.842 25.9771 118.058 25.8926C118.276 25.8081 118.517 25.7652 118.782 25.7652C119.126 25.7652 119.421 25.8371 119.668 25.9822C119.915 26.1273 120.099 26.314 120.222 26.5436C120.345 26.7732 120.406 27.0066 120.406 27.245C120.406 27.4658 120.342 27.6084 120.214 27.674C120.089 27.7396 119.91 27.7724 119.68 27.7724ZM117.956 27.274H119.554C119.533 26.9738 119.452 26.7492 119.311 26.6004C119.171 26.4515 118.984 26.3771 118.754 26.3771C118.535 26.3771 118.354 26.4528 118.213 26.6041C118.071 26.7543 117.985 26.9788 117.956 27.274Z" fill="white"/>
<path d="M123.988 28.1938C123.988 28.436 123.928 28.6429 123.811 28.8157C123.692 28.9885 123.517 29.1198 123.286 29.2081C123.054 29.2964 122.773 29.3418 122.441 29.3418C122.125 29.3418 121.854 29.2938 121.628 29.1967C121.403 29.1008 121.235 28.9797 121.128 28.8346C121.02 28.6896 120.967 28.5445 120.967 28.3994C120.967 28.3022 121.001 28.2202 121.071 28.1521C121.139 28.084 121.226 28.0487 121.333 28.0487C121.425 28.0487 121.496 28.0714 121.546 28.1155C121.595 28.1597 121.643 28.224 121.688 28.3048C121.778 28.4612 121.886 28.5785 122.012 28.6555C122.137 28.7324 122.31 28.7716 122.527 28.7716C122.704 28.7716 122.849 28.7324 122.962 28.6542C123.075 28.576 123.132 28.4864 123.132 28.3855C123.132 28.2316 123.073 28.1181 122.956 28.0474C122.838 27.9768 122.645 27.9086 122.375 27.8443C122.071 27.7699 121.824 27.6904 121.634 27.6084C121.443 27.5264 121.291 27.4166 121.177 27.2816C121.063 27.1466 121.006 26.9801 121.006 26.7833C121.006 26.608 121.059 26.4414 121.164 26.285C121.27 26.1286 121.425 26.0037 121.631 25.9103C121.836 25.8169 122.084 25.7703 122.375 25.7703C122.603 25.7703 122.809 25.7942 122.991 25.8409C123.172 25.8876 123.324 25.9519 123.446 26.0301C123.567 26.1096 123.66 26.1979 123.723 26.2938C123.787 26.3897 123.818 26.4843 123.818 26.5764C123.818 26.6773 123.784 26.7593 123.717 26.8237C123.648 26.888 123.552 26.9208 123.428 26.9208C123.338 26.9208 123.261 26.8956 123.198 26.8439C123.134 26.7921 123.062 26.7152 122.98 26.6117C122.913 26.5259 122.834 26.4578 122.744 26.4061C122.654 26.3544 122.531 26.3291 122.375 26.3291C122.216 26.3291 122.084 26.3632 121.978 26.4301C121.873 26.4969 121.819 26.5815 121.819 26.6824C121.819 26.7745 121.859 26.8502 121.936 26.9095C122.013 26.9688 122.118 27.0167 122.249 27.0558C122.38 27.0949 122.56 27.1416 122.791 27.1971C123.065 27.264 123.287 27.3435 123.461 27.4355C123.635 27.5276 123.765 27.6361 123.855 27.7623C123.942 27.8897 123.988 28.0335 123.988 28.1938Z" fill="white"/>
<path d="M42.4994 40.889C42.6261 40.7553 42.8009 40.7048 42.9744 40.6606C43.0466 40.6556 43.1163 40.6505 43.1809 40.6341C43.2493 40.5711 43.3202 40.5105 43.4039 40.4676C43.4203 40.4348 43.4317 40.397 43.4393 40.3516C44.1284 39.4016 44.0296 38.3053 43.9562 37.2443C43.8865 36.2426 43.9042 35.2447 43.8941 34.2455C43.8751 32.4743 44.0271 30.7055 43.984 28.9318C43.9714 28.4296 44.131 28.3338 44.5921 28.5596C45.4205 28.9646 46.2667 29.3027 47.175 29.4995C49.3208 29.965 51.3717 29.6445 53.3732 28.8308C55.0199 28.1609 56.4349 27.139 57.732 25.9506C60.4492 23.459 62.9751 20.7744 65.615 18.2046C66.5334 17.3101 67.5341 16.5229 68.6666 15.9097C70.022 15.1768 71.4623 14.768 73.0128 14.8942C74.386 15.0065 75.4766 15.6776 76.3887 16.6856C79.2325 19.8257 77.5402 24.5427 74.0895 25.7765C73.8869 25.8485 73.6842 25.9242 73.465 25.938C73.1978 25.9292 72.9317 25.9317 72.6873 26.0642C71.3331 26.2623 70.093 25.909 68.9187 25.2707C67.98 24.761 67.1668 24.0734 66.3294 23.4212C65.8531 23.0503 65.3439 22.7652 64.7029 22.9292C64.0594 23.0944 63.5996 23.4754 63.3931 24.1125C63.1689 24.8039 63.3995 25.4157 63.8998 25.8712C65.5466 27.3674 67.32 28.7034 69.5026 29.3102C72.8139 30.2287 75.8199 29.5852 78.4383 27.3396C79.7912 26.1803 80.7096 24.7332 81.2074 23.0263C81.4164 22.3085 81.5596 21.5805 81.5253 20.8274C81.4633 20.7328 81.4759 20.6066 81.4759 20.488C81.4759 14.6646 81.4759 8.84113 81.4772 3.01769C81.4772 2.91172 81.4455 2.78178 81.5228 2.70608C81.5203 2.63417 81.5139 2.561 81.5228 2.48909C81.6457 1.4218 81.2631 0.644664 80.2244 0.239698C80.1573 0.213205 80.1066 0.158957 80.0673 0.0971397C80.0661 0.0920934 80.0648 0.0883086 80.0635 0.0832623C79.7962 0.267453 79.5302 0.267453 79.2629 0.0820007C79.2591 0.0908318 79.2553 0.100924 79.2515 0.109755C79.1464 0.259883 78.9779 0.312869 78.8221 0.382256C78.2926 0.61691 78.0076 1.03701 77.8822 1.58454C77.8176 1.86587 77.81 2.14973 77.81 2.4361C77.8112 5.50678 77.8112 8.57872 77.81 11.6494C77.81 12.5943 77.6136 12.7028 76.7826 12.2714C75.6552 11.686 74.4392 11.4375 73.1775 11.358C69.9371 11.1536 67.2453 12.4291 64.8068 14.3971C64.5611 14.5952 64.3179 14.7958 64.081 15.0027C63.9986 15.0569 63.9163 15.1112 63.8378 15.1705C63.7972 15.2222 63.7478 15.2638 63.6895 15.2954C63.6541 15.3282 63.6199 15.3622 63.5882 15.4001C63.3399 15.6499 63.084 15.8921 62.7775 16.0725C62.6774 16.1305 62.5799 16.1936 62.5165 16.2958C61.8667 17.1385 61.0357 17.8109 60.3251 18.5956C59.2965 19.7323 58.1944 20.7996 57.0847 21.8568C55.9358 22.9531 54.7805 24.0469 53.4099 24.8834C52.0405 25.7185 50.5774 26.2194 48.956 26.097C47.9413 26.02 46.9761 25.7526 46.1894 25.0499C46.1514 24.9931 46.1134 24.9363 46.0729 24.8821C45.9411 24.7925 45.8297 24.6815 45.7233 24.5629C45.6764 24.5389 45.6257 24.5188 45.5687 24.5049C44.9227 24.0343 44.606 23.3379 44.3362 22.634C43.2227 19.726 44.5908 16.48 47.484 15.313C49.6819 14.4261 51.7327 14.879 53.5974 16.2807C53.6683 16.345 53.7367 16.4131 53.8102 16.4724C53.8368 16.4901 53.8621 16.509 53.8862 16.5292C53.9597 16.5796 54.042 16.6188 54.1383 16.6352C54.5766 16.861 54.9363 17.1903 55.3113 17.5019C55.8851 17.9775 56.5008 18.303 57.2874 18.009C58.2679 17.6432 58.6948 16.4522 58.1501 15.5603C58.0525 15.4001 57.9385 15.2525 57.8017 15.125C56.3411 13.7651 54.7526 12.5704 52.8487 11.9194C49.4526 10.7562 46.2832 11.2457 43.4963 13.5418C41.2934 15.3559 40.1724 17.7302 40.1711 20.5952C40.1686 26.613 40.1711 32.6307 40.1686 38.6472C40.1686 39.037 40.1964 39.4155 40.3485 39.7813C40.5486 40.2607 40.921 40.5534 41.3745 40.7729C41.5392 40.8524 41.5696 40.8789 41.5341 40.9659C41.562 40.9773 41.5899 40.9874 41.619 40.9987C41.8888 40.8322 42.1586 40.836 42.4285 40.995C42.4335 40.9924 42.4399 40.9912 42.4449 40.9886C42.4437 40.9647 42.4601 40.9306 42.4994 40.889ZM77.8264 12.448C77.8556 12.4202 77.9481 12.4341 77.9633 12.5035C77.9848 12.6057 77.8898 12.6725 77.829 12.694C77.5186 12.805 77.1981 12.8025 76.8751 12.6953C77.1766 12.5312 77.5528 12.7066 77.8264 12.448Z" fill="white"/>
<path d="M0.100073 21.1377C0.188745 21.2223 0.190012 21.3446 0.201413 21.4582C0.419293 23.6634 1.43016 25.4839 2.96799 27.0394C4.76424 28.8561 6.98231 29.6786 9.512 29.6294C13.9558 29.5424 16.9047 26.9776 18.3121 23.1197C18.5819 22.3816 18.6807 21.5944 18.6795 20.7984C18.6757 14.6772 18.6655 8.55476 18.6871 2.43358C18.6909 1.33475 18.34 0.541217 17.2506 0.166528C17.1822 0.142558 17.1264 0.0958799 17.0808 0.0378473C17.0732 0.0252315 17.0669 0.0126158 17.0631 0.00126158C16.8718 0.142558 16.6793 0.141297 16.488 0C16.4829 0.0176621 16.4766 0.0340626 16.4639 0.0517247C16.3828 0.158959 16.2625 0.20816 16.1447 0.262408C15.3428 0.630789 14.9704 1.25148 14.973 2.13207C14.9818 5.42731 14.9768 8.72255 14.9755 12.0178C14.9755 12.231 14.9996 12.4492 14.9096 12.6511C14.8513 12.7836 14.7715 12.8277 14.6867 12.6789C14.5917 12.6725 14.5157 12.6221 14.446 12.559C14.204 12.6019 14.0052 12.4593 13.8063 12.3521C12.7954 11.8096 11.7263 11.4337 10.5849 11.3163C7.92097 11.0451 5.50782 11.6633 3.44175 13.4169C1.70378 14.8942 0.680243 16.779 0.252083 19.0019C0.20268 19.2555 0.235615 19.5191 0.150743 19.7639C0.119074 19.8572 0.0633374 19.9506 0.00760048 19.8951C0.00633374 19.9052 0.00506699 19.914 0.00380024 19.9241C0.190012 20.3101 0.195079 20.6962 0 21.081C0.00126675 21.086 0.00126675 21.0898 0.00253349 21.0948C0.0253349 21.0873 0.0570036 21.0974 0.100073 21.1377ZM9.33593 14.8538C12.3546 14.8311 14.954 17.324 15.0224 20.2168C15.0971 23.3896 12.5864 25.9734 9.66528 25.9923C6.3046 26.0137 3.86865 23.6861 3.84078 20.4312C3.81544 17.4274 6.32994 14.8753 9.33593 14.8538Z" fill="white"/>
<path d="M33.8222 28.8548C35.3765 28.1218 36.6686 27.0734 37.573 25.6113C38.1646 24.655 37.6984 23.3985 36.6572 22.967C35.7667 22.5986 34.9395 22.832 34.3352 23.6218C32.7746 25.6605 30.3564 26.4452 27.985 25.6844C25.8024 24.983 24.1544 22.7147 24.1962 20.4716C24.2431 17.9611 25.8341 15.8605 28.2624 15.0998C30.6515 14.3504 33.3434 15.7117 34.0667 18.0759C32.2806 18.0759 30.5261 18.0633 28.7717 18.0797C27.5847 18.091 26.7259 18.9426 26.7259 20.0629C26.7259 21.1945 27.5746 22.0196 28.7679 22.0423C29.1416 22.0498 29.5153 22.0435 29.8902 22.0435C32.1045 22.0435 34.32 22.0435 36.5343 22.0435C37.34 22.0435 37.9708 21.7483 38.2748 20.9674C38.4686 20.4678 38.475 19.9342 38.442 19.4031C38.3407 17.7706 37.7137 16.3311 36.7851 15.0102C35.2891 12.8845 33.2851 11.5283 30.6731 11.1637C28.2156 10.8205 26.0507 11.5283 24.1252 13.0535C19.5143 16.7033 19.3939 22.0625 22.3227 26.1184C24.8169 29.5752 29.8167 30.7434 33.8222 28.8548Z" fill="white"/>
</g>
<defs>
<clipPath id="clip0_43_13">
<rect width="137" height="41" fill="white"/>
</clipPath>
</defs>
</svg>
