<svg width="6" height="21" viewBox="0 0 6 21" fill="none" xmlns="http://www.w3.org/2000/svg">
<g clip-path="url(#clip0_5_532)">
<path d="M3 5.73978C1.35 5.73978 0 4.65773 0 3.33522C0 2.01272 1.35 0.930664 3 0.930664C4.65 0.930664 6 2.01272 6 3.33522C6 4.65773 4.65 5.73978 3 5.73978ZM3 1.73218C1.9 1.73218 1 2.45355 1 3.33522C1 4.21689 1.9 4.93826 3 4.93826C4.1 4.93826 5 4.21689 5 3.33522C5 2.45355 4.1 1.73218 3 1.73218Z" fill="black"/>
<path d="M3 20.1671C1.35 20.1671 0 19.0851 0 17.7626C0 16.4401 1.35 15.358 3 15.358C4.65 15.358 6 16.4401 6 17.7626C6 19.0851 4.65 20.1671 3 20.1671ZM3 16.1596C1.9 16.1596 1 16.8809 1 17.7626C1 18.6443 1.9 19.3656 3 19.3656C4.1 19.3656 5 18.6443 5 17.7626C5 16.8809 4.1 16.1596 3 16.1596Z" fill="black"/>
<path d="M3 12.9535C1.35 12.9535 0 11.8714 0 10.5489C0 9.2264 1.35 8.14435 3 8.14435C4.65 8.14435 6 9.2264 6 10.5489C6 11.8714 4.65 12.9535 3 12.9535ZM3 8.94587C1.9 8.94587 1 9.66724 1 10.5489C1 11.4306 1.9 12.1519 3 12.1519C4.1 12.1519 5 11.4306 5 10.5489C5 9.66724 4.1 8.94587 3 8.94587Z" fill="black"/>
</g>
<defs>
<clipPath id="clip0_5_532">
<rect width="6" height="19.2365" fill="white" transform="translate(0 0.930664)"/>
</clipPath>
</defs>
</svg>
