<svg width="19" height="23" viewBox="0 0 19 23" fill="none" xmlns="http://www.w3.org/2000/svg">
<g clip-path="url(#clip0_50_9)">
<path d="M10.024 5.4061C11.5207 5.4061 12.7342 4.19494 12.7342 2.70305C12.7342 1.21116 11.5247 0 10.024 0C8.52726 0 7.31372 1.21116 7.31372 2.70305C7.31372 4.19494 8.52726 5.4061 10.024 5.4061Z" fill="white"/>
<path d="M18.9435 19.2422L16.7065 14.0005C16.5892 13.7278 16.3222 13.5674 16.0431 13.5714C16.0391 13.5714 16.0391 13.5714 16.035 13.5714H11.9697V9.40051H14.3725C14.7648 9.40051 15.0804 9.08369 15.0804 8.69467V7.16669C15.0804 6.77767 14.7648 6.46085 14.3725 6.46085H11.2618H9.71651H8.79017C8.3978 6.46085 8.08228 6.77767 8.08228 7.16669V16.094C8.08228 16.483 8.3978 16.7998 8.79017 16.7998H10.2019H11.2658H14.7042L16.2332 20.3892C16.3869 20.7461 16.7995 20.9146 17.1596 20.7622L18.5713 20.1646C18.9273 20.0162 19.0972 19.6031 18.9435 19.2422Z" fill="white"/>
<path d="M10.9178 17.9749C10.1897 19.3585 8.73749 20.301 7.06281 20.301C4.65595 20.301 2.71024 18.3599 2.71024 15.9616C2.71024 13.6556 4.51842 11.7747 6.79987 11.6343V8.9353C3.02172 9.07968 0 12.1637 0 15.9616C0 19.8478 3.1633 23 7.06281 23C10.2625 23 12.9606 20.8785 13.8263 17.9749H10.9178Z" fill="white"/>
</g>
<defs>
<clipPath id="clip0_50_9">
<rect width="19" height="23" fill="white"/>
</clipPath>
</defs>
</svg>
