<svg width="19" height="23" viewBox="0 0 19 23" fill="none" xmlns="http://www.w3.org/2000/svg">
<path d="M10.0238 5.43278C11.5205 5.43278 12.7341 4.24118 12.7341 2.77337C12.7341 1.30557 11.5246 0.11396 10.0238 0.11396C8.52714 0.11396 7.3136 1.30557 7.3136 2.77337C7.3136 4.24118 8.52714 5.43278 10.0238 5.43278Z" fill="white"/>
<path d="M18.9433 19.0456L16.7064 13.8885C16.5891 13.6202 16.3221 13.4624 16.043 13.4663C16.0389 13.4663 16.0389 13.4663 16.0349 13.4663H11.9695V9.3628H14.3723C14.7647 9.3628 15.0802 9.05109 15.0802 8.66835V7.16503C15.0802 6.7823 14.7647 6.47059 14.3723 6.47059H11.2616H9.71639H8.79005C8.39767 6.47059 8.08215 6.7823 8.08215 7.16503V15.9482C8.08215 16.3309 8.39767 16.6426 8.79005 16.6426H10.2018H11.2657H14.704L16.2331 20.1741C16.3868 20.5252 16.7994 20.6909 17.1594 20.541L18.5712 19.9531C18.9272 19.8071 19.0971 19.4007 18.9433 19.0456Z" fill="white"/>
<path d="M10.9178 17.7989C10.1897 19.1602 8.73749 20.0874 7.06281 20.0874C4.65595 20.0874 2.71024 18.1777 2.71024 15.8181C2.71024 13.5494 4.51842 11.6988 6.79987 11.5607V8.90525C3.02172 9.0473 0 12.0816 0 15.8181C0 19.6415 3.1633 22.7429 7.06281 22.7429C10.2625 22.7429 12.9606 20.6556 13.8263 17.7989H10.9178Z" fill="white"/>
</svg>
